<?xml version="1.0" encoding="UTF-8" standalone="no"?>
<svg width="156px" height="48px" viewBox="0 0 156 48" version="1.1" xmlns="http://www.w3.org/2000/svg" xmlns:xlink="http://www.w3.org/1999/xlink" xmlns:sketch="http://www.bohemiancoding.com/sketch/ns">
    <title>Slice 1</title>
    <description>Created with Sketch (http://www.bohemiancoding.com/sketch)</description>
    <defs></defs>
    <g id="Page-1" stroke="none" stroke-width="1" fill="none" fill-rule="evenodd" sketch:type="MSPage">
        <g id="logo" sketch:type="MSLayerGroup">
            <g id="Group" sketch:type="MSShapeGroup">
                <path d="M3.71657143,14.292 L10.9105714,14.292 C12.1037143,14.292 13.2797143,14.4548571 14.4497143,14.7805714 C15.6197143,15.1062857 16.6697143,15.6231429 17.5997143,16.3277143 C18.5331429,17.0288571 19.2857143,17.9391429 19.8591429,19.0577143 C20.4325714,20.1797143 20.7197143,21.522 20.7197143,23.0871429 C20.7197143,24.9282857 20.4008571,26.6065714 19.7545714,28.1117143 C19.1117143,29.6202857 18.216,30.906 17.0648571,31.9748571 C15.9154286,33.048 14.5577143,33.8734286 12.9925714,34.4605714 C11.4274286,35.0451429 9.72428571,35.3357143 7.88142857,35.3357143 L0,35.3357143 L3.71657143,14.292 L3.71657143,14.292 Z M4.194,32.124 L8.02714286,32.124 C9.49285714,32.124 10.782,31.89 11.892,31.4125714 C13.002,30.942 13.9302857,30.3008571 14.6734286,29.5002857 C15.4174286,28.6962857 15.9745714,27.7902857 16.3517143,26.7702857 C16.7271429,25.7537143 16.9148571,24.6882857 16.9148571,23.5834286 C16.9148571,22.7511429 16.7768571,21.9617143 16.5008571,21.2074286 C16.2214286,20.4565714 15.7997143,19.8051429 15.2365714,19.2488571 C14.6734286,18.6968571 13.956,18.2571429 13.0937143,17.928 C12.2331429,17.6022857 11.2045714,17.4394286 10.0182857,17.4394286 L6.77742857,17.4394286 L4.194,32.124 L4.194,32.124 Z" id="Shape" fill="#8CC341"></path>
                <path d="M24.8434286,35.3357143 L28.5565714,14.2911429 L41.8157143,14.2911429 L41.2525714,17.4994286 L31.5608571,17.4994286 L30.6085714,22.938 L39.852,22.938 L39.2888571,26.0331429 L30.0737143,26.0331429 L29.004,32.0674286 L39.528,32.0674286 L38.9614286,35.3357143 L24.8434286,35.3357143 L24.8434286,35.3357143 Z" id="Shape" fill="#8CC341"></path>
                <path d="M85.4528571,32.0357143 C85.0388571,32.574 84.5537143,33.0728571 84.0008571,33.5374286 C83.4411429,34.0045714 82.818,34.4117143 82.128,34.7554286 C81.4302857,35.1025714 80.6691429,35.3751429 79.8368571,35.5731429 C79.0045714,35.7711429 78.0942857,35.8705714 77.1034286,35.8705714 C75.6977143,35.8705714 74.4197143,35.6511429 73.2685714,35.2191429 C72.1174286,34.7794286 71.1308571,34.1674286 70.3105714,33.3737143 C69.4877143,32.58 68.8482857,31.632 68.3914286,30.5194286 C67.9362857,29.4077143 67.7082857,28.1828571 67.7082857,26.8337143 C67.7082857,25.0105714 68.0237143,23.3065714 68.6588571,21.72 C69.2922857,20.1368571 70.1691429,18.7525714 71.2877143,17.5731429 C72.4097143,16.3937143 73.7245714,15.4628571 75.2297143,14.7797143 C76.7382857,14.0965714 78.3565714,13.7528571 80.106,13.7528571 C80.8782857,13.7528571 81.6248571,13.8342857 82.3474286,13.9902857 C83.0734286,14.1497143 83.7462857,14.3691429 84.3694286,14.6451429 C84.996,14.9245714 85.5557143,15.2614286 86.0511429,15.6574286 C86.5465714,16.0542857 86.9545714,16.4897143 87.2691429,16.9637143 L84.3831429,19.1348571 C84.2271429,18.8974286 84.0222857,18.6428571 83.76,18.3771429 C83.5045714,18.108 83.1865714,17.8671429 82.8077143,17.6511429 C82.4322857,17.4317143 82.014,17.2508571 81.5468571,17.1128571 C81.0797143,16.9714286 80.5585714,16.9037143 79.9851429,16.9037143 C78.7388571,16.9037143 77.5911429,17.1694286 76.5505714,17.7077143 C75.5134286,18.2425714 74.6211429,18.954 73.8771429,19.8497143 C73.1331429,20.7385714 72.552,21.7517143 72.138,22.8771429 C71.7197143,24.0102857 71.5148571,25.1682857 71.5148571,26.3545714 C71.5148571,27.2297143 71.6477143,28.0474286 71.9134286,28.8085714 C72.1842857,29.5731429 72.57,30.2357143 73.074,30.8022857 C73.5805714,31.3688571 74.2071429,31.8188571 74.9614286,32.1548571 C75.7157143,32.4917143 76.5797143,32.658 77.55,32.658 C78.5982857,32.658 79.5968571,32.442 80.5491429,32.0065714 C81.5014286,31.5668571 82.3551429,30.8871429 83.1094286,29.9562857 L85.4528571,32.0357143 L85.4528571,32.0357143 Z" id="Shape" fill="#727376"></path>
                <path d="M102.786,13.7537143 C104.291143,13.7537143 105.657429,13.9697143 106.872,14.3948571 C108.093429,14.82 109.138286,15.4251429 110.009143,16.2077143 C110.884286,16.9902857 111.556286,17.946 112.031143,19.0757143 C112.506,20.2054286 112.743429,21.4731429 112.743429,22.8788571 C112.743429,24.6634286 112.442571,26.3494286 111.84,27.9351429 C111.234857,29.5217143 110.398286,30.8957143 109.326,32.0674286 C108.252857,33.2357143 106.985143,34.1605714 105.519429,34.8437143 C104.053714,35.5302857 102.453429,35.8705714 100.707429,35.8705714 C99.1602857,35.8705714 97.7614286,35.6614286 96.5108571,35.2474286 C95.2645714,34.8334286 94.1982857,34.2274286 93.3171429,33.4345714 C92.4394286,32.6417143 91.7554286,31.6817143 91.2814286,30.552 C90.8074286,29.4188571 90.57,28.1511429 90.57,26.7454286 C90.57,24.9642857 90.8811429,23.2782857 91.5051429,21.6925714 C92.1282857,20.106 92.9854286,18.7285714 94.0757143,17.5568571 C95.166,16.392 96.4551429,15.4637143 97.9422857,14.7805714 C99.4285714,14.0965714 101.04,13.7537143 102.786,13.7537143 L102.786,13.7537143 Z M100.707429,32.6588571 C102.031714,32.6588571 103.206857,32.3965714 104.230286,31.8582857 C105.246857,31.3234286 106.110857,30.6085714 106.812,29.7197143 C107.516571,28.8274286 108.051429,27.8142857 108.419143,26.6845714 C108.783429,25.5548571 108.972,24.3977143 108.972,23.2071429 C108.972,22.3534286 108.830571,21.5425714 108.553714,20.7711429 C108.277714,19.9954286 107.870571,19.3294286 107.335714,18.7637143 C106.800857,18.1971429 106.138286,17.7471429 105.345429,17.4111429 C104.551714,17.0751429 103.638857,16.9045714 102.612,16.9045714 C101.337429,16.9045714 100.193143,17.1702857 99.1774286,17.7085714 C98.154,18.2434286 97.2865714,18.9548571 96.5708571,19.8505714 C95.8628571,20.7394286 95.31,21.7525714 94.9242857,22.878 C94.5385714,24.0111429 94.3397143,25.1691429 94.3397143,26.3554286 C94.3397143,27.2305714 94.4811429,28.0482857 94.7614286,28.8094286 C95.0374286,29.574 95.4411429,30.2365714 95.9794286,30.8031429 C96.5108571,31.3697143 97.1794286,31.8197143 97.9731429,32.1557143 C98.7634286,32.4925714 99.6728571,32.6588571 100.707429,32.6588571 L100.707429,32.6588571 Z" id="Shape" fill="#727376"></path>
                <path d="M133.554,35.3357143 L129.421714,35.3357143 L125.437714,26.3554286 L122.643429,26.3554286 L121.096286,35.3357143 L117.502286,35.3357143 L121.217143,14.2911429 L127.463143,14.2911429 C129.779143,14.2911429 131.563714,14.7694286 132.828,15.7328571 C134.085429,16.692 134.715429,18.024 134.715429,19.7305714 C134.715429,21.4122857 134.212286,22.776 133.213714,23.8174286 C132.211714,24.858 130.869429,25.5668571 129.184286,25.9422857 L133.554,35.3357143 L133.554,35.3357143 Z M125.916,23.3562857 C127.520571,23.3562857 128.759143,23.0982857 129.630857,22.5805714 C130.501714,22.0705714 130.937143,21.2417143 130.937143,20.1162857 C130.937143,19.0825714 130.572857,18.3702857 129.842571,17.9777143 C129.102857,17.5808571 128.124857,17.3794286 126.896571,17.3794286 L124.248,17.3794286 L123.178286,23.3562857 L125.916,23.3562857 L125.916,23.3562857 Z" id="Shape" fill="#727376"></path>
                <path d="M139.024286,35.3357143 L142.739143,14.2911429 L156,14.2911429 L155.433429,17.4994286 L145.738286,17.4994286 L144.789429,22.938 L154.035429,22.938 L153.472286,26.0331429 L144.258857,26.0331429 L143.186571,32.0674286 L153.710571,32.0674286 L153.147429,35.3357143 L139.024286,35.3357143 L139.024286,35.3357143 Z" id="Shape" fill="#727376"></path>
                <path d="M50.3177143,14.292 L46.4545714,14.292 L49.4571429,32.7822857 L52.0885714,27.942 L50.3177143,14.292 Z" id="Shape" fill="#8CC341"></path>
                <path d="M70.3371429,0 L49.8711429,35.3357143 L53.2637143,35.3357143 L74.4685714,0 L70.3371429,0 Z" id="Shape" fill="#8CC341"></path>
            </g>
        </g>
    </g>
</svg>