<?xml version="1.0" encoding="UTF-8" standalone="no"?>
<svg width="286px" height="48px" viewBox="0 0 286 48" version="1.1" xmlns="http://www.w3.org/2000/svg" xmlns:xlink="http://www.w3.org/1999/xlink" xmlns:sketch="http://www.bohemiancoding.com/sketch/ns">
    <title>Untitled</title>
    <description>Created with Sketch (http://www.bohemiancoding.com/sketch)</description>
    <defs></defs>
    <g id="Page-1" stroke="none" stroke-width="1" fill="none" fill-rule="evenodd" sketch:type="MSPage">
        <g id="devcorelogo" sketch:type="MSLayerGroup">
            <g id="Group" sketch:type="MSShapeGroup">
                <path d="M3.742,14.392 L10.988,14.392 C12.19,14.392 13.372,14.556 14.55,14.884 C15.729,15.212 16.787,15.733 17.722,16.442 C18.662,17.148 19.419,18.065 19.997,19.191 C20.575,20.322 20.864,21.673 20.864,23.249 C20.864,25.103 20.545,26.794 19.892,28.309 C19.245,29.828 18.344,31.123 17.184,32.199 C16.027,33.279 14.661,34.11 13.083,34.702 C11.507,35.29 9.794,35.583 7.936,35.583 L0,35.583 L3.742,14.392 L3.742,14.392 Z M4.224,32.35 L8.084,32.35 C9.56,32.35 10.86,32.115 11.978,31.633 C13.096,31.159 14.028,30.513 14.779,29.707 C15.526,28.897 16.088,27.985 16.467,26.958 C16.847,25.935 17.036,24.861 17.036,23.749 C17.036,22.911 16.895,22.116 16.619,21.356 C16.337,20.6 15.913,19.944 15.346,19.384 C14.779,18.828 14.057,18.385 13.189,18.054 C12.322,17.726 11.287,17.562 10.092,17.562 L6.827,17.562 L4.224,32.35 L4.224,32.35 Z" id="Shape" fill="#8DC63F"></path>
                <path d="M25.019,35.585 L28.758,14.392 L42.113,14.392 L41.544,17.623 L31.784,17.623 L30.824,23.1 L40.135,23.1 L39.566,26.217 L30.286,26.217 L29.211,32.293 L39.807,32.293 L39.236,35.585 L25.019,35.585 L25.019,35.585 Z" id="Shape" fill="#8DC63F"></path>
                <path d="M86.055,32.261 C85.638,32.803 85.149,33.306 84.593,33.773 C84.03,34.244 83.402,34.654 82.707,35 C82.005,35.349 81.238,35.624 80.4,35.824 C79.562,36.024 78.645,36.124 77.647,36.124 C76.231,36.124 74.944,35.903 73.785,35.468 C72.626,35.026 71.631,34.409 70.808,33.61 C69.979,32.811 69.333,31.856 68.875,30.736 C68.415,29.616 68.185,28.382 68.185,27.024 C68.185,25.187 68.503,23.472 69.142,21.875 C69.78,20.281 70.663,18.887 71.792,17.699 C72.923,16.512 74.245,15.574 75.761,14.885 C77.28,14.197 78.91,13.851 80.671,13.851 C81.448,13.851 82.201,13.933 82.928,14.09 C83.659,14.25 84.337,14.472 84.964,14.75 C85.595,15.032 86.159,15.371 86.658,15.77 C87.157,16.169 87.567,16.608 87.885,17.086 L84.979,19.272 C84.822,19.033 84.615,18.776 84.351,18.509 C84.094,18.238 83.773,17.996 83.392,17.778 C83.014,17.557 82.593,17.375 82.123,17.236 C81.652,17.093 81.128,17.025 80.55,17.025 C79.295,17.025 78.139,17.292 77.091,17.835 C76.046,18.373 75.147,19.09 74.399,19.992 C73.65,20.887 73.065,21.907 72.648,23.041 C72.225,24.182 72.02,25.348 72.02,26.543 C72.02,27.424 72.154,28.248 72.421,29.014 C72.694,29.784 73.082,30.451 73.589,31.022 C74.099,31.593 74.73,32.045 75.49,32.384 C76.25,32.723 77.12,32.89 78.097,32.89 C79.153,32.89 80.158,32.673 81.117,32.234 C82.076,31.792 82.936,31.107 83.695,30.169 L86.055,32.261 L86.055,32.261 Z" id="Shape" fill="#727376"></path>
                <path d="M103.511,13.85 C105.026,13.85 106.403,14.067 107.626,14.495 C108.856,14.923 109.908,15.533 110.785,16.321 C111.666,17.109 112.343,18.072 112.821,19.209 C113.299,20.347 113.538,21.623 113.538,23.039 C113.538,24.836 113.235,26.534 112.629,28.131 C112.019,29.729 111.178,31.112 110.097,32.292 C109.017,33.469 107.74,34.399 106.264,35.088 C104.788,35.78 103.176,36.122 101.418,36.122 C99.86,36.122 98.451,35.911 97.192,35.494 C95.937,35.077 94.863,34.467 93.976,33.668 C93.092,32.869 92.403,31.903 91.926,30.765 C91.448,29.624 91.209,28.347 91.209,26.932 C91.209,25.138 91.523,23.441 92.15,21.843 C92.778,20.245 93.641,18.858 94.739,17.678 C95.837,16.505 97.135,15.571 98.633,14.882 C100.13,14.196 101.753,13.85 103.511,13.85 L103.511,13.85 Z M101.418,32.889 C102.752,32.889 103.936,32.625 104.966,32.083 C105.99,31.545 106.86,30.824 107.566,29.929 C108.275,29.03 108.814,28.01 109.185,26.873 C109.552,25.735 109.741,24.569 109.741,23.371 C109.741,22.512 109.598,21.695 109.32,20.918 C109.042,20.137 108.632,19.467 108.093,18.896 C107.555,18.325 106.888,17.873 106.089,17.534 C105.29,17.195 104.37,17.024 103.336,17.024 C102.052,17.024 100.9,17.291 99.877,17.834 C98.847,18.372 97.973,19.089 97.252,19.991 C96.539,20.886 95.983,21.906 95.594,23.04 C95.205,24.181 95.006,25.347 95.006,26.542 C95.006,27.423 95.149,28.247 95.43,29.013 C95.708,29.783 96.115,30.45 96.657,31.021 C97.192,31.592 97.866,32.044 98.665,32.383 C99.46,32.721 100.376,32.889 101.418,32.889 L101.418,32.889 Z" id="Shape" fill="#727376"></path>
                <path d="M134.495,35.585 L130.334,35.585 L126.322,26.542 L123.508,26.542 L121.95,35.585 L118.331,35.585 L122.072,14.392 L128.362,14.392 C130.694,14.392 132.491,14.873 133.764,15.843 C135.03,16.809 135.665,18.15 135.665,19.869 C135.665,21.563 135.159,22.936 134.153,23.984 C133.144,25.033 131.792,25.746 130.095,26.124 L134.495,35.585 L134.495,35.585 Z M126.804,23.521 C128.419,23.521 129.667,23.261 130.545,22.74 C131.422,22.226 131.861,21.392 131.861,20.258 C131.861,19.217 131.494,18.5 130.759,18.104 C130.014,17.705 129.029,17.501 127.792,17.501 L125.125,17.501 L124.048,23.52 L126.804,23.52 L126.804,23.521 Z" id="Shape" fill="#727376"></path>
                <path d="M140.005,35.585 L143.746,14.392 L157.1,14.392 L156.529,17.623 L146.766,17.623 L145.81,23.1 L155.121,23.1 L154.554,26.217 L145.275,26.217 L144.195,32.293 L154.793,32.293 L154.226,35.585 L140.005,35.585 L140.005,35.585 Z" id="Shape" fill="#727376"></path>
                <path d="M50.672,14.392 L46.784,14.392 L49.808,33.014 L52.457,28.139 L50.672,14.392 Z" id="Shape" fill="#8DC63F"></path>
                <path d="M70.832,0 L50.223,35.585 L53.639,35.585 L74.994,0 L70.832,0 Z" id="Shape" fill="#8DC63F"></path>
            </g>
            <g id="Group" transform="translate(175.000000, 14.000000)" fill="#6D6E71" sketch:type="MSShapeGroup">
                <path d="M3.137,0.638 L3.137,-0.193 L3.647,-0.193 L3.647,0.638 L6.056,0.638 L6.056,1.102 L3.647,1.102 L3.647,1.979 L7.266,1.979 C7.22,1.303 7.184,0.579 7.171,-0.193 L7.729,-0.193 C7.741,0.592 7.765,1.315 7.813,1.979 L10.553,1.979 L10.553,2.443 L7.848,2.443 C7.943,3.914 8.108,5.173 8.346,6.205 C8.369,6.335 8.394,6.455 8.417,6.562 C8.916,5.66 9.248,4.699 9.437,3.7 L9.949,3.796 C9.712,5.078 9.261,6.253 8.608,7.321 C8.797,8.009 9.011,8.626 9.248,9.172 C9.557,9.753 9.771,10.051 9.901,10.051 C9.949,10.051 10.008,9.931 10.079,9.694 C10.15,9.362 10.222,8.85 10.268,8.152 L10.732,8.377 C10.638,9.302 10.518,9.908 10.365,10.205 C10.245,10.442 10.103,10.562 9.949,10.562 C9.641,10.562 9.332,10.289 9.034,9.754 C8.738,9.256 8.465,8.638 8.228,7.878 C7.504,8.887 6.638,9.789 5.639,10.608 L5.225,10.228 C6.423,9.256 7.349,8.27 8.014,7.261 C8.014,7.25 8.025,7.238 8.037,7.215 C7.966,6.978 7.907,6.739 7.859,6.478 C7.599,5.387 7.408,4.046 7.301,2.443 L-0.068,2.443 L-0.068,1.979 L3.136,1.979 L3.136,1.102 L0.679,1.102 L0.679,0.638 L3.137,0.638 L3.137,0.638 Z M6.247,3.047 L6.247,5.825 L4.894,5.825 L4.894,6.62 L6.568,6.62 L6.568,7.035 L4.894,7.035 L4.894,7.96 L6.936,7.96 L6.936,8.376 L-0.066,8.376 L-0.066,7.96 L1.976,7.96 L1.976,7.035 L0.396,7.035 L0.396,6.62 L1.976,6.62 L1.976,5.825 L0.776,5.825 L0.776,3.047 L6.247,3.047 L6.247,3.047 Z M2.722,8.886 C2.128,9.421 1.369,9.908 0.443,10.369 L-0.021,10.002 C0.953,9.563 1.712,9.112 2.258,8.613 L2.722,8.886 L2.722,8.886 Z M3.232,4.163 L3.232,3.462 L1.287,3.462 L1.287,4.163 L3.232,4.163 L3.232,4.163 Z M3.232,5.41 L3.232,4.579 L1.287,4.579 L1.287,5.41 L3.232,5.41 L3.232,5.41 Z M4.384,5.825 L2.485,5.825 L2.485,6.62 L4.384,6.62 L4.384,5.825 L4.384,5.825 Z M4.384,7.961 L4.384,7.036 L2.485,7.036 L2.485,7.961 L4.384,7.961 L4.384,7.961 Z M3.742,4.163 L5.737,4.163 L5.737,3.462 L3.742,3.462 L3.742,4.163 L3.742,4.163 Z M3.742,5.41 L5.737,5.41 L5.737,4.579 L3.742,4.579 L3.742,5.41 L3.742,5.41 Z M5.689,9.587 L5.309,9.954 C4.929,9.599 4.467,9.266 3.92,8.934 L4.289,8.613 C4.763,8.886 5.227,9.207 5.689,9.587 L5.689,9.587 Z M10.045,1.327 L9.678,1.755 C9.25,1.184 8.799,0.71 8.325,0.318 L8.657,-0.062 C9.155,0.342 9.617,0.804 10.045,1.327 L10.045,1.327 Z" id="Shape"></path>
                <path d="M19.23,1.885 C19.255,1.268 19.278,0.58 19.278,-0.156 L19.884,-0.156 C19.884,0.58 19.859,1.268 19.836,1.885 L23.871,1.885 L23.871,2.443 L19.813,2.443 C19.752,3.416 19.658,4.235 19.54,4.9 L24.796,4.9 L24.796,5.458 L20.417,5.458 C20.715,6.478 21.271,7.393 22.102,8.175 C22.91,8.981 23.906,9.646 25.117,10.192 L24.653,10.739 C23.396,10.145 22.351,9.386 21.497,8.46 C20.643,7.581 20.06,6.572 19.764,5.457 L19.42,5.457 C19.372,5.646 19.313,5.812 19.265,5.967 C18.898,7.012 18.329,7.902 17.569,8.661 C16.761,9.456 15.741,10.109 14.506,10.654 L14.223,10.144 C15.385,9.622 16.346,9.005 17.106,8.245 C17.817,7.532 18.352,6.667 18.709,5.669 C18.732,5.598 18.745,5.528 18.768,5.457 L14.507,5.457 L14.507,4.9 L18.911,4.9 C19.041,4.235 19.136,3.417 19.207,2.443 L15.386,2.443 L15.386,1.885 L19.23,1.885 L19.23,1.885 Z" id="Shape"></path>
                <path d="M33.733,4.994 L33.733,5.458 L32.629,5.458 L32.629,9.124 C32.629,9.468 32.69,9.659 32.82,9.707 C32.879,9.802 34.173,9.86 36.702,9.86 C37.709,9.86 38.339,9.789 38.588,9.671 C38.718,9.551 38.838,9.006 38.932,8.009 L39.442,8.282 C39.289,9.386 39.133,9.967 38.991,10.038 C38.945,10.227 38.173,10.323 36.702,10.323 C34.327,10.323 33.034,10.287 32.797,10.227 C32.547,10.181 32.369,10.109 32.275,10.015 C32.168,9.908 32.12,9.682 32.12,9.35 L32.12,5.458 L31.052,5.458 C31.006,7.238 30.838,8.436 30.555,9.042 C30.246,9.754 29.747,10.324 29.059,10.739 L28.727,10.324 C29.355,9.932 29.806,9.409 30.091,8.744 C30.351,8.198 30.506,7.095 30.542,5.458 L29.153,5.458 L29.153,4.994 L33.733,4.994 L33.733,4.994 Z M34.635,1.196 L39.027,1.196 L39.027,3.047 L38.517,3.047 L38.517,1.66 L29.747,1.66 L29.747,3.095 L29.237,3.095 L29.237,1.196 L34.067,1.196 C33.876,0.793 33.628,0.401 33.32,0.033 L33.734,-0.288 C34.149,0.164 34.446,0.651 34.635,1.196 L34.635,1.196 Z M33.414,3.047 L33.414,3.511 L30.078,3.511 L30.078,3.047 L33.414,3.047 L33.414,3.047 Z M36.012,2.075 L36.012,3.462 L38.696,3.462 L38.696,3.926 L36.012,3.926 L36.012,4.994 L38.137,4.994 C37.864,5.848 37.365,6.668 36.63,7.428 C37.14,7.867 37.614,8.305 38.053,8.744 L37.673,9.124 C37.222,8.65 36.76,8.199 36.273,7.772 C35.526,8.425 34.659,8.97 33.686,9.396 L33.46,8.934 C34.375,8.554 35.182,8.055 35.894,7.451 C35.372,7.023 34.839,6.633 34.291,6.253 L34.624,5.92 C35.193,6.312 35.738,6.715 36.25,7.118 C36.831,6.537 37.234,5.979 37.461,5.458 L34.161,5.458 L34.161,4.994 L35.502,4.994 L35.502,2.075 L36.012,2.075 L36.012,2.075 Z" id="Shape"></path>
                <path d="M53.407,0.496 L53.407,0.96 L48.638,0.96 L48.638,2.632 L52.067,2.632 C51.557,2.3 51.047,1.992 50.537,1.707 L50.821,1.327 C51.937,1.898 52.946,2.561 53.872,3.32 L53.551,3.748 C53.267,3.523 52.993,3.309 52.72,3.095 L52.72,9.587 C52.72,10.204 52.437,10.512 51.879,10.512 C51.474,10.512 51.012,10.466 50.49,10.369 L50.442,9.811 C51,9.93 51.474,10.002 51.879,10.002 C52.093,10.002 52.211,9.824 52.211,9.492 L52.211,3.095 L48.64,3.095 L48.64,10.37 L48.128,10.37 L48.128,3.095 L44.746,3.095 L44.746,10.703 L44.236,10.703 L44.236,3.072 C43.904,3.25 43.571,3.416 43.216,3.559 L42.943,3.144 C44.223,2.597 45.232,1.98 45.945,1.291 L46.419,1.564 C45.991,1.956 45.529,2.313 45.007,2.632 L48.127,2.632 L48.127,0.96 L43.404,0.96 L43.404,0.496 L53.407,0.496 L53.407,0.496 Z M47.758,6.62 C47.485,7 47.189,7.356 46.856,7.688 C47.213,7.984 47.557,8.293 47.901,8.613 L47.569,8.934 C47.248,8.613 46.904,8.292 46.548,7.984 C46.145,8.364 45.717,8.708 45.255,9.029 L44.934,8.744 C45.408,8.425 45.847,8.081 46.239,7.724 C45.872,7.439 45.479,7.143 45.064,6.845 L45.396,6.572 C45.776,6.845 46.168,7.13 46.548,7.428 C46.88,7.107 47.165,6.774 47.427,6.43 L47.758,6.62 L47.758,6.62 Z M47.758,3.653 C47.485,4.033 47.189,4.377 46.868,4.698 C47.223,5.007 47.58,5.315 47.936,5.647 L47.615,5.968 C47.294,5.635 46.95,5.315 46.57,4.982 C46.18,5.362 45.752,5.706 45.301,6.014 L44.969,5.741 C45.443,5.422 45.882,5.088 46.262,4.734 C45.882,4.436 45.492,4.14 45.064,3.832 L45.396,3.559 C45.788,3.843 46.181,4.14 46.571,4.449 C46.892,4.128 47.177,3.796 47.427,3.463 L47.758,3.653 L47.758,3.653 Z M51.793,6.62 C51.508,7 51.199,7.367 50.855,7.711 C51.212,8.02 51.543,8.34 51.877,8.661 L51.556,8.98 C51.248,8.648 50.903,8.327 50.547,7.996 C50.131,8.388 49.68,8.743 49.194,9.076 L48.875,8.791 C49.372,8.459 49.823,8.115 50.251,7.736 C49.871,7.427 49.479,7.107 49.053,6.798 L49.385,6.525 C49.788,6.809 50.18,7.117 50.56,7.45 C50.892,7.117 51.189,6.785 51.462,6.428 L51.793,6.62 L51.793,6.62 Z M51.793,3.653 C51.508,4.02 51.212,4.364 50.891,4.685 C51.235,4.993 51.579,5.314 51.923,5.646 L51.604,5.967 C51.283,5.634 50.939,5.302 50.582,4.97 C50.167,5.35 49.715,5.694 49.241,6.013 L48.909,5.74 C49.407,5.421 49.87,5.077 50.273,4.708 C49.906,4.399 49.513,4.103 49.098,3.795 L49.419,3.51 C49.811,3.795 50.202,4.104 50.594,4.423 C50.915,4.115 51.198,3.795 51.461,3.462 L51.793,3.653 L51.793,3.653 Z" id="Shape"></path>
                <path d="M61.739,9.682 C60.338,10.156 58.902,10.5 57.431,10.739 L57.24,10.227 C58.784,9.99 60.171,9.658 61.418,9.255 L61.739,9.682 L61.739,9.682 Z M60.587,2.858 C59.697,3.475 58.688,4.033 57.574,4.53 L57.289,4.163 C58.403,3.664 59.402,3.107 60.256,2.49 L60.587,2.858 L60.587,2.858 Z M60.398,1.327 L60.125,1.755 C59.496,1.304 58.736,0.901 57.846,0.544 L58.035,0.129 C58.961,0.473 59.756,0.875 60.398,1.327 L60.398,1.327 Z M66.189,4.342 L66.189,8.935 L59.103,8.935 L59.103,4.342 L66.189,4.342 L66.189,4.342 Z M65.679,5.777 L65.679,4.805 L59.613,4.805 L59.613,5.777 L65.679,5.777 L65.679,5.777 Z M65.679,7.13 L65.679,6.205 L59.613,6.205 L59.613,7.13 L65.679,7.13 L65.679,7.13 Z M65.679,8.471 L65.679,7.546 L59.613,7.546 L59.613,8.471 L65.679,8.471 L65.679,8.471 Z M62.995,-0.014 C62.865,0.294 62.699,0.58 62.51,0.865 L67.624,0.865 C67.422,1.505 67.043,2.122 66.474,2.728 L65.916,2.443 C66.331,2.086 66.64,1.696 66.829,1.291 L64.326,1.291 C64.219,1.719 64.076,2.076 63.887,2.359 C65.322,2.905 66.652,3.523 67.863,4.211 L67.494,4.627 C66.283,3.89 64.991,3.261 63.589,2.739 C63.27,3.096 62.901,3.368 62.485,3.559 C61.868,3.868 61.085,4.092 60.124,4.212 L59.981,3.748 C60.858,3.641 61.571,3.452 62.129,3.19 C62.614,2.976 63.019,2.68 63.35,2.277 C63.564,2.004 63.717,1.671 63.814,1.291 L62.188,1.291 C62.165,1.316 62.14,1.339 62.129,1.362 C61.724,1.826 61.262,2.216 60.763,2.537 L60.442,2.17 C60.929,1.836 61.344,1.469 61.701,1.09 C62.045,0.687 62.306,0.272 62.484,-0.156 L62.995,-0.014 L62.995,-0.014 Z M68.004,10.227 L67.815,10.739 C66.462,10.275 65.085,9.944 63.686,9.73 L63.827,9.256 C65.228,9.468 66.627,9.789 68.004,10.227 L68.004,10.227 Z" id="Shape"></path>
                <path d="M75.676,1.754 L75.676,2.216 L71.358,2.216 L71.358,1.754 L75.676,1.754 L75.676,1.754 Z M75.214,3.286 L75.214,3.748 L71.867,3.748 L71.867,3.286 L75.214,3.286 L75.214,3.286 Z M75.214,4.9 L75.214,5.362 L71.867,5.362 L71.867,4.9 L75.214,4.9 L75.214,4.9 Z M75.12,10.418 L74.608,10.418 L74.608,9.635 L72.566,9.635 L72.566,10.418 L72.056,10.418 L72.056,6.572 L75.119,6.572 L75.119,10.418 L75.12,10.418 Z M74.146,1.327 L73.682,1.66 C73.397,1.113 73.029,0.58 72.566,0.08 L72.982,-0.193 C73.433,0.271 73.825,0.781 74.146,1.327 L74.146,1.327 Z M74.608,9.172 L74.608,7.036 L72.566,7.036 L72.566,9.172 L74.608,9.172 L74.608,9.172 Z M80.495,0.592 C80.495,4.673 80.648,7.474 80.957,8.993 C81.064,9.599 81.207,9.908 81.373,9.908 C81.516,9.908 81.612,9.635 81.658,9.1 C81.658,9.1 81.681,8.567 81.742,7.497 L82.216,7.688 C82.157,8.804 82.109,9.362 82.086,9.362 C82.038,9.788 81.943,10.086 81.778,10.252 C81.635,10.395 81.505,10.466 81.373,10.466 C80.982,10.466 80.71,10.168 80.554,9.587 C80.139,8.364 79.937,5.54 79.937,1.102 L77.801,1.102 L77.801,4.627 L79.664,4.627 L79.664,5.089 L77.801,5.089 L77.801,10.739 L77.255,10.739 L77.255,5.089 L75.581,5.089 L75.581,4.627 L77.255,4.627 L77.255,1.102 L75.534,1.102 L75.534,0.592 L80.495,0.592 L80.495,0.592 Z" id="Shape"></path>
                <path d="M89.434,4.484 C89.791,3.724 90.11,2.94 90.372,2.122 L90.882,2.265 C90.62,3.06 90.324,3.797 90.003,4.485 L96.211,4.485 L96.211,4.995 L93.576,4.995 C93.41,6.182 92.898,7.215 92.069,8.092 C93.54,8.77 94.858,9.493 96.02,10.276 L95.699,10.786 C94.488,9.955 93.124,9.221 91.618,8.532 C90.514,9.539 88.674,10.263 86.098,10.739 L85.921,10.227 C88.294,9.811 90.015,9.171 91.059,8.282 C90.216,7.925 89.349,7.594 88.447,7.26 C88.258,7.545 88.056,7.807 87.866,8.055 L87.451,7.688 C88.116,6.845 88.685,5.943 89.184,4.994 L85.779,4.994 L85.779,4.484 L89.434,4.484 L89.434,4.484 Z M91.261,1.148 L95.795,1.148 L95.795,3.286 L95.237,3.286 L95.237,1.66 L86.656,1.66 L86.656,3.368 L86.098,3.368 L86.098,1.148 L90.691,1.148 C90.525,0.793 90.311,0.449 90.038,0.128 L90.466,-0.193 C90.823,0.212 91.095,0.661 91.261,1.148 L91.261,1.148 Z M93.005,4.994 L89.765,4.994 C89.456,5.634 89.125,6.228 88.768,6.774 C89.741,7.118 90.654,7.475 91.51,7.844 C92.293,7.023 92.793,6.075 93.005,4.994 L93.005,4.994 Z" id="Shape"></path>
                <path d="M105.523,0.128 C107.09,2.287 108.859,3.783 110.852,4.627 L110.531,5.231 C108.728,4.4 107.031,2.976 105.441,0.971 C104.753,1.848 103.945,2.643 103.032,3.38 C102.237,4.02 101.286,4.637 100.195,5.231 L99.922,4.627 C101.036,4.092 102.046,3.452 102.925,2.703 C103.66,2.086 104.325,1.398 104.918,0.638 L101.821,0.638 L101.821,0.128 L105.523,0.128 L105.523,0.128 Z M108.265,4.069 L108.265,4.579 L105.665,4.579 L105.665,6.763 L109.095,6.763 L109.095,7.261 L105.665,7.261 L105.665,9.682 L110.484,9.682 L110.484,10.192 L100.29,10.192 L100.29,9.682 L105.108,9.682 L105.108,7.26 L101.679,7.26 L101.679,6.762 L105.108,6.762 L105.108,4.578 L102.462,4.578 L102.462,4.068 L108.265,4.068 L108.265,4.069 Z" id="Shape"></path>
            </g>
            <g id="Group" transform="translate(175.000000, 29.000000)" fill="#6D6E71" sketch:type="MSShapeGroup">
                <path d="M0.417,5.47 C0.524,5.689 0.67,5.864 0.857,5.994 C1.042,6.124 1.263,6.219 1.518,6.274 C1.773,6.331 2.046,6.358 2.336,6.358 C2.502,6.358 2.684,6.335 2.88,6.288 C3.074,6.24 3.258,6.165 3.426,6.06 C3.595,5.957 3.736,5.823 3.848,5.661 C3.962,5.497 4.017,5.301 4.017,5.069 C4.017,4.891 3.978,4.737 3.898,4.607 C3.818,4.475 3.714,4.366 3.586,4.277 C3.459,4.188 3.319,4.115 3.163,4.059 C3.01,4.002 2.858,3.956 2.71,3.92 L1.296,3.574 C1.111,3.526 0.932,3.467 0.758,3.396 C0.583,3.325 0.43,3.23 0.3,3.111 C0.17,2.993 0.065,2.847 -0.016,2.676 C-0.096,2.505 -0.137,2.293 -0.137,2.045 C-0.137,1.89 -0.107,1.71 -0.048,1.501 C0.011,1.294 0.123,1.098 0.286,0.914 C0.45,0.73 0.673,0.575 0.958,0.447 C1.243,0.32 1.607,0.256 2.053,0.256 C2.367,0.256 2.666,0.297 2.952,0.381 C3.236,0.463 3.485,0.588 3.699,0.754 C3.911,0.922 4.082,1.127 4.211,1.373 C4.338,1.619 4.402,1.906 4.402,2.232 L3.797,2.232 C3.785,1.988 3.729,1.776 3.631,1.595 C3.533,1.413 3.406,1.263 3.249,1.14 C3.092,1.019 2.91,0.928 2.705,0.865 C2.502,0.803 2.286,0.771 2.061,0.771 C1.853,0.771 1.653,0.794 1.46,0.839 C1.267,0.884 1.098,0.955 0.954,1.051 C0.808,1.149 0.69,1.279 0.601,1.44 C0.514,1.599 0.469,1.798 0.469,2.035 C0.469,2.183 0.494,2.311 0.544,2.422 C0.594,2.531 0.663,2.625 0.753,2.702 C0.842,2.779 0.946,2.841 1.06,2.889 C1.176,2.935 1.299,2.975 1.429,3.005 L2.979,3.387 C3.204,3.446 3.416,3.519 3.614,3.604 C3.814,3.691 3.988,3.797 4.14,3.925 C4.29,4.053 4.409,4.209 4.495,4.392 C4.58,4.575 4.625,4.798 4.625,5.059 C4.625,5.13 4.616,5.225 4.602,5.344 C4.588,5.462 4.552,5.588 4.495,5.722 C4.44,5.856 4.359,5.989 4.254,6.127 C4.151,6.262 4.008,6.386 3.828,6.496 C3.646,6.605 3.423,6.694 3.156,6.762 C2.89,6.832 2.569,6.866 2.195,6.866 C1.822,6.866 1.475,6.823 1.155,6.737 C0.834,6.65 0.561,6.518 0.337,6.34 C0.111,6.163 -0.062,5.935 -0.184,5.655 C-0.305,5.377 -0.357,5.042 -0.339,4.651 L0.265,4.651 C0.26,4.978 0.31,5.251 0.417,5.47 L0.417,5.47 Z" id="Shape"></path>
                <path d="M7.886,5.224 C7.943,5.442 8.034,5.636 8.159,5.807 C8.282,5.98 8.439,6.121 8.63,6.235 C8.819,6.347 9.047,6.403 9.315,6.403 C9.725,6.403 10.044,6.298 10.276,6.084 C10.508,5.87 10.666,5.585 10.756,5.23 L11.318,5.23 C11.198,5.752 10.981,6.155 10.664,6.439 C10.347,6.724 9.897,6.867 9.316,6.867 C8.954,6.867 8.642,6.803 8.378,6.676 C8.114,6.547 7.898,6.373 7.733,6.15 C7.567,5.927 7.444,5.67 7.364,5.376 C7.284,5.084 7.244,4.773 7.244,4.447 C7.244,4.144 7.283,3.848 7.364,3.557 C7.444,3.266 7.567,3.006 7.733,2.778 C7.899,2.55 8.115,2.366 8.378,2.227 C8.642,2.088 8.954,2.018 9.316,2.018 C9.683,2.018 9.999,2.091 10.259,2.241 C10.519,2.389 10.731,2.583 10.895,2.822 C11.057,3.063 11.175,3.339 11.246,3.649 C11.317,3.961 11.346,4.277 11.335,4.598 L7.803,4.598 C7.802,4.8 7.83,5.009 7.886,5.224 L7.886,5.224 Z M10.662,3.513 C10.594,3.317 10.498,3.144 10.373,2.992 C10.248,2.84 10.097,2.719 9.918,2.628 C9.741,2.535 9.538,2.489 9.313,2.489 C9.081,2.489 8.878,2.535 8.7,2.628 C8.522,2.719 8.37,2.84 8.245,2.992 C8.122,3.144 8.022,3.318 7.947,3.516 C7.874,3.716 7.824,3.919 7.801,4.126 L10.771,4.126 C10.767,3.912 10.729,3.709 10.662,3.513 L10.662,3.513 Z" id="Shape"></path>
                <path d="M16.945,2.783 C16.736,2.587 16.447,2.489 16.073,2.489 C15.806,2.489 15.572,2.546 15.371,2.658 C15.169,2.77 15.002,2.918 14.868,3.102 C14.734,3.287 14.634,3.496 14.565,3.73 C14.497,3.965 14.463,4.203 14.463,4.447 C14.463,4.689 14.497,4.928 14.565,5.162 C14.635,5.397 14.734,5.606 14.868,5.79 C15.002,5.974 15.169,6.122 15.371,6.236 C15.572,6.348 15.806,6.404 16.073,6.404 C16.244,6.404 16.408,6.372 16.562,6.308 C16.717,6.242 16.853,6.151 16.972,6.035 C17.09,5.921 17.188,5.782 17.266,5.621 C17.343,5.462 17.389,5.288 17.407,5.097 L17.969,5.097 C17.891,5.655 17.687,6.088 17.354,6.4 C17.022,6.712 16.596,6.867 16.074,6.867 C15.725,6.867 15.414,6.803 15.145,6.676 C14.874,6.547 14.647,6.375 14.464,6.155 C14.28,5.936 14.141,5.679 14.045,5.385 C13.951,5.093 13.904,4.779 13.904,4.447 C13.904,4.115 13.95,3.801 14.045,3.507 C14.141,3.215 14.28,2.958 14.464,2.739 C14.648,2.52 14.874,2.345 15.145,2.215 C15.414,2.083 15.724,2.019 16.074,2.019 C16.566,2.019 16.983,2.149 17.324,2.409 C17.665,2.671 17.868,3.065 17.934,3.593 L17.372,3.593 C17.294,3.249 17.152,2.979 16.945,2.783 L16.945,2.783 Z" id="Shape"></path>
                <path d="M23.932,6.742 L23.932,5.915 L23.914,5.915 C23.766,6.223 23.552,6.459 23.27,6.623 C22.988,6.785 22.675,6.867 22.33,6.867 C22.039,6.867 21.793,6.826 21.588,6.746 C21.383,6.668 21.217,6.554 21.089,6.404 C20.962,6.256 20.868,6.076 20.809,5.862 C20.75,5.648 20.72,5.406 20.72,5.133 L20.72,2.154 L21.282,2.154 L21.282,5.142 C21.293,5.558 21.389,5.871 21.571,6.085 C21.751,6.299 22.065,6.404 22.509,6.404 C22.753,6.404 22.96,6.352 23.131,6.249 C23.304,6.145 23.446,6.008 23.559,5.835 C23.671,5.664 23.755,5.466 23.809,5.243 C23.862,5.022 23.887,4.794 23.887,4.564 L23.887,2.153 L24.449,2.153 L24.449,6.742 L23.932,6.742 L23.932,6.742 Z" id="Shape"></path>
                <path d="M28.015,2.152 L28.015,3.227 L28.033,3.227 C28.176,2.854 28.395,2.566 28.694,2.364 C28.994,2.163 29.352,2.072 29.767,2.089 L29.767,2.649 C29.512,2.636 29.28,2.67 29.072,2.751 C28.865,2.831 28.685,2.945 28.535,3.093 C28.383,3.243 28.266,3.419 28.184,3.623 C28.1,3.828 28.059,4.053 28.059,4.295 L28.059,6.741 L27.497,6.741 L27.497,2.152 L28.015,2.152 L28.015,2.152 Z" id="Shape"></path>
                <path d="M32.904,0.391 L32.904,1.29 L32.342,1.29 L32.342,0.391 L32.904,0.391 L32.904,0.391 Z M32.904,2.152 L32.904,6.741 L32.342,6.741 L32.342,2.152 L32.904,2.152 L32.904,2.152 Z" id="Shape"></path>
                <path d="M37.809,2.152 L37.809,2.623 L36.875,2.623 L36.875,5.718 C36.875,5.902 36.9,6.046 36.952,6.15 C37.002,6.253 37.129,6.312 37.33,6.325 C37.489,6.325 37.649,6.316 37.81,6.298 L37.81,6.769 C37.726,6.769 37.644,6.773 37.56,6.778 C37.478,6.783 37.394,6.787 37.312,6.787 C36.938,6.787 36.677,6.714 36.529,6.57 C36.381,6.424 36.31,6.156 36.315,5.764 L36.315,2.624 L35.514,2.624 L35.514,2.153 L36.315,2.153 L36.315,0.773 L36.875,0.773 L36.875,2.153 L37.809,2.153 L37.809,2.152 Z" id="Shape"></path>
                <path d="M40.844,2.152 L42.356,6.066 L43.772,2.152 L44.332,2.152 L42.339,7.435 C42.257,7.631 42.18,7.792 42.109,7.92 C42.038,8.048 41.959,8.148 41.872,8.223 C41.787,8.296 41.687,8.35 41.571,8.382 C41.455,8.416 41.309,8.432 41.131,8.432 C41.019,8.427 40.931,8.421 40.869,8.418 C40.807,8.416 40.751,8.405 40.703,8.388 L40.703,7.917 C40.769,7.928 40.833,7.939 40.896,7.947 C40.958,7.956 41.021,7.961 41.087,7.961 C41.212,7.961 41.313,7.943 41.394,7.908 C41.474,7.872 41.544,7.822 41.603,7.76 C41.664,7.698 41.713,7.623 41.755,7.534 C41.796,7.445 41.841,7.347 41.889,7.24 L42.085,6.725 L40.252,2.153 L40.844,2.153 L40.844,2.152 Z" id="Shape"></path>
                <path d="M55.402,1.658 C55.281,1.465 55.133,1.303 54.958,1.173 C54.783,1.043 54.591,0.943 54.38,0.875 C54.168,0.807 53.949,0.772 53.717,0.772 C53.296,0.772 52.934,0.852 52.631,1.013 C52.33,1.173 52.082,1.386 51.889,1.649 C51.697,1.913 51.554,2.211 51.461,2.542 C51.37,2.874 51.324,3.216 51.324,3.565 C51.324,3.909 51.37,4.248 51.461,4.583 C51.554,4.918 51.696,5.218 51.889,5.481 C52.082,5.745 52.329,5.957 52.631,6.118 C52.934,6.278 53.296,6.357 53.717,6.357 C54.013,6.357 54.28,6.305 54.518,6.198 C54.756,6.091 54.96,5.945 55.131,5.761 C55.304,5.577 55.443,5.363 55.55,5.115 C55.657,4.871 55.725,4.605 55.753,4.32 L56.359,4.32 C56.316,4.711 56.225,5.063 56.083,5.379 C55.94,5.693 55.757,5.96 55.532,6.18 C55.305,6.399 55.04,6.569 54.735,6.686 C54.43,6.805 54.09,6.864 53.717,6.864 C53.22,6.864 52.781,6.773 52.405,6.593 C52.029,6.411 51.715,6.171 51.467,5.867 C51.217,5.564 51.03,5.214 50.905,4.817 C50.782,4.421 50.72,4.002 50.72,3.563 C50.72,3.124 50.782,2.705 50.905,2.308 C51.03,1.912 51.217,1.561 51.467,1.254 C51.715,0.949 52.029,0.707 52.405,0.525 C52.781,0.345 53.22,0.254 53.717,0.254 C54.02,0.254 54.314,0.299 54.601,0.388 C54.89,0.477 55.15,0.609 55.384,0.784 C55.619,0.959 55.814,1.174 55.972,1.429 C56.129,1.684 56.227,1.976 56.27,2.308 L55.666,2.308 C55.612,2.068 55.523,1.851 55.402,1.658 L55.402,1.658 Z" id="Shape"></path>
                <path d="M62.059,2.215 C62.33,2.345 62.557,2.52 62.74,2.739 C62.924,2.958 63.063,3.215 63.157,3.507 C63.253,3.801 63.3,4.115 63.3,4.447 C63.3,4.779 63.254,5.092 63.157,5.385 C63.063,5.679 62.923,5.936 62.74,6.155 C62.556,6.374 62.33,6.547 62.059,6.676 C61.79,6.803 61.48,6.867 61.13,6.867 C60.781,6.867 60.47,6.803 60.201,6.676 C59.93,6.547 59.703,6.375 59.52,6.155 C59.336,5.936 59.197,5.679 59.101,5.385 C59.007,5.093 58.96,4.779 58.96,4.447 C58.96,4.115 59.006,3.801 59.101,3.507 C59.197,3.215 59.336,2.958 59.52,2.739 C59.704,2.52 59.93,2.345 60.201,2.215 C60.47,2.083 60.78,2.019 61.13,2.019 C61.48,2.019 61.79,2.083 62.059,2.215 L62.059,2.215 Z M60.428,2.659 C60.226,2.771 60.059,2.919 59.925,3.103 C59.791,3.288 59.691,3.497 59.622,3.731 C59.554,3.966 59.52,4.204 59.52,4.448 C59.52,4.69 59.554,4.929 59.622,5.163 C59.692,5.398 59.791,5.607 59.925,5.791 C60.059,5.975 60.226,6.123 60.428,6.237 C60.629,6.349 60.863,6.405 61.131,6.405 C61.398,6.405 61.632,6.35 61.833,6.237 C62.035,6.123 62.202,5.975 62.336,5.791 C62.47,5.607 62.57,5.399 62.639,5.163 C62.707,4.929 62.741,4.69 62.741,4.448 C62.741,4.204 62.707,3.967 62.639,3.731 C62.569,3.497 62.47,3.289 62.336,3.103 C62.202,2.919 62.035,2.771 61.833,2.659 C61.632,2.547 61.398,2.49 61.131,2.49 C60.863,2.489 60.629,2.546 60.428,2.659 L60.428,2.659 Z" id="Shape"></path>
                <path d="M66.702,2.152 L66.702,2.944 L66.72,2.944 C66.827,2.664 67.016,2.441 67.289,2.272 C67.562,2.103 67.861,2.019 68.188,2.019 C68.507,2.019 68.776,2.06 68.992,2.144 C69.21,2.226 69.383,2.344 69.513,2.495 C69.643,2.647 69.736,2.832 69.789,3.051 C69.842,3.27 69.869,3.516 69.869,3.789 L69.869,6.742 L69.307,6.742 L69.307,3.878 C69.307,3.682 69.289,3.498 69.255,3.331 C69.219,3.162 69.157,3.016 69.068,2.891 C68.979,2.766 68.859,2.668 68.708,2.597 C68.556,2.526 68.368,2.49 68.143,2.49 C67.917,2.49 67.717,2.531 67.542,2.611 C67.367,2.69 67.219,2.8 67.098,2.939 C66.975,3.078 66.881,3.246 66.813,3.438 C66.745,3.631 66.708,3.839 66.702,4.064 L66.702,6.742 L66.14,6.742 L66.14,2.153 L66.702,2.153 L66.702,2.152 Z" id="Shape"></path>
                <path d="M75.548,3.046 C75.482,2.919 75.395,2.814 75.286,2.73 C75.175,2.646 75.051,2.586 74.908,2.548 C74.765,2.509 74.614,2.489 74.453,2.489 C74.33,2.489 74.203,2.503 74.075,2.53 C73.948,2.557 73.831,2.601 73.724,2.664 C73.617,2.725 73.532,2.807 73.467,2.908 C73.401,3.008 73.369,3.133 73.369,3.281 C73.369,3.406 73.399,3.511 73.462,3.596 C73.524,3.683 73.603,3.755 73.697,3.815 C73.793,3.874 73.897,3.922 74.009,3.961 C74.121,4 74.225,4.031 74.321,4.054 L75.068,4.223 C75.227,4.246 75.385,4.291 75.544,4.351 C75.701,4.413 75.84,4.495 75.961,4.597 C76.082,4.697 76.182,4.822 76.259,4.97 C76.336,5.118 76.375,5.293 76.375,5.496 C76.375,5.744 76.318,5.956 76.206,6.131 C76.094,6.306 75.949,6.448 75.775,6.559 C75.6,6.668 75.404,6.746 75.185,6.794 C74.964,6.842 74.748,6.865 74.534,6.865 C73.996,6.865 73.557,6.736 73.222,6.482 C72.889,6.227 72.696,5.819 72.65,5.255 L73.21,5.255 C73.233,5.635 73.372,5.92 73.624,6.113 C73.875,6.306 74.189,6.402 74.562,6.402 C74.699,6.402 74.84,6.388 74.985,6.357 C75.131,6.329 75.265,6.279 75.39,6.207 C75.515,6.136 75.618,6.045 75.697,5.934 C75.777,5.825 75.818,5.69 75.818,5.529 C75.818,5.394 75.79,5.279 75.733,5.187 C75.678,5.096 75.601,5.019 75.506,4.957 C75.412,4.895 75.303,4.843 75.182,4.8 C75.061,4.759 74.938,4.723 74.813,4.695 L74.093,4.535 C73.909,4.487 73.74,4.431 73.587,4.369 C73.432,4.307 73.296,4.23 73.182,4.139 C73.066,4.046 72.975,3.934 72.909,3.8 C72.845,3.666 72.811,3.502 72.811,3.306 C72.811,3.074 72.864,2.876 72.968,2.711 C73.071,2.545 73.207,2.411 73.373,2.31 C73.539,2.21 73.724,2.135 73.929,2.089 C74.132,2.041 74.335,2.018 74.537,2.018 C74.769,2.018 74.984,2.046 75.182,2.107 C75.38,2.166 75.556,2.259 75.706,2.382 C75.858,2.507 75.979,2.662 76.066,2.846 C76.155,3.03 76.207,3.245 76.218,3.495 L75.658,3.495 C75.649,3.324 75.614,3.174 75.548,3.046 L75.548,3.046 Z" id="Shape"></path>
                <path d="M82.364,6.742 L82.364,5.915 L82.346,5.915 C82.198,6.223 81.984,6.459 81.702,6.623 C81.42,6.785 81.107,6.867 80.762,6.867 C80.471,6.867 80.225,6.826 80.02,6.746 C79.815,6.668 79.649,6.554 79.521,6.404 C79.394,6.256 79.3,6.076 79.241,5.862 C79.182,5.648 79.152,5.406 79.152,5.133 L79.152,2.154 L79.714,2.154 L79.714,5.142 C79.725,5.558 79.821,5.871 80.003,6.085 C80.183,6.299 80.497,6.404 80.941,6.404 C81.185,6.404 81.392,6.352 81.563,6.249 C81.736,6.145 81.878,6.008 81.991,5.835 C82.103,5.664 82.187,5.466 82.241,5.243 C82.294,5.022 82.319,4.794 82.319,4.564 L82.319,2.153 L82.881,2.153 L82.881,6.742 L82.364,6.742 L82.364,6.742 Z" id="Shape"></path>
                <path d="M86.488,0.391 L86.488,6.742 L85.926,6.742 L85.926,0.391 L86.488,0.391 L86.488,0.391 Z" id="Shape"></path>
                <path d="M91.393,2.152 L91.393,2.623 L90.459,2.623 L90.459,5.718 C90.459,5.902 90.484,6.046 90.536,6.15 C90.586,6.253 90.713,6.312 90.914,6.325 C91.073,6.325 91.233,6.316 91.394,6.298 L91.394,6.769 C91.31,6.769 91.228,6.773 91.144,6.778 C91.062,6.783 90.978,6.787 90.896,6.787 C90.522,6.787 90.261,6.714 90.113,6.57 C89.965,6.424 89.894,6.156 89.899,5.764 L89.899,2.624 L89.098,2.624 L89.098,2.153 L89.899,2.153 L89.899,0.773 L90.459,0.773 L90.459,2.153 L91.393,2.153 L91.393,2.152 Z" id="Shape"></path>
                <path d="M94.683,0.391 L94.683,1.29 L94.121,1.29 L94.121,0.391 L94.683,0.391 L94.683,0.391 Z M94.683,2.152 L94.683,6.741 L94.121,6.741 L94.121,2.152 L94.683,2.152 L94.683,2.152 Z" id="Shape"></path>
                <path d="M98.3,2.152 L98.3,2.944 L98.318,2.944 C98.425,2.664 98.614,2.441 98.887,2.272 C99.16,2.103 99.459,2.019 99.786,2.019 C100.105,2.019 100.374,2.06 100.59,2.144 C100.807,2.226 100.98,2.344 101.111,2.495 C101.241,2.647 101.334,2.832 101.387,3.051 C101.44,3.27 101.467,3.516 101.467,3.789 L101.467,6.742 L100.905,6.742 L100.905,3.878 C100.905,3.682 100.887,3.498 100.853,3.331 C100.817,3.162 100.755,3.016 100.666,2.891 C100.577,2.766 100.457,2.668 100.306,2.597 C100.154,2.526 99.965,2.49 99.741,2.49 C99.515,2.49 99.315,2.531 99.14,2.611 C98.965,2.69 98.817,2.8 98.696,2.939 C98.573,3.078 98.478,3.246 98.411,3.438 C98.343,3.631 98.306,3.839 98.301,4.064 L98.301,6.742 L97.739,6.742 L97.739,2.153 L98.3,2.153 L98.3,2.152 Z" id="Shape"></path>
                <path d="M108.281,7.284 C108.208,7.557 108.09,7.788 107.93,7.978 C107.77,8.169 107.561,8.313 107.302,8.415 C107.045,8.515 106.73,8.567 106.355,8.567 C106.123,8.567 105.899,8.54 105.679,8.487 C105.46,8.434 105.262,8.35 105.087,8.237 C104.912,8.125 104.768,7.98 104.652,7.805 C104.536,7.63 104.469,7.422 104.451,7.177 L105.013,7.177 C105.042,7.35 105.1,7.494 105.186,7.608 C105.272,7.724 105.375,7.818 105.498,7.89 C105.619,7.961 105.753,8.013 105.903,8.045 C106.051,8.077 106.203,8.093 106.356,8.093 C106.878,8.093 107.255,7.945 107.486,7.649 C107.716,7.353 107.832,6.925 107.832,6.367 L107.832,5.745 L107.814,5.745 C107.684,6.03 107.493,6.258 107.24,6.43 C106.989,6.603 106.694,6.689 106.356,6.689 C105.989,6.689 105.675,6.628 105.413,6.507 C105.153,6.386 104.937,6.218 104.769,6.004 C104.6,5.79 104.477,5.54 104.398,5.252 C104.321,4.965 104.284,4.658 104.284,4.332 C104.284,4.018 104.329,3.72 104.421,3.439 C104.512,3.157 104.646,2.911 104.82,2.699 C104.997,2.489 105.212,2.323 105.471,2.202 C105.728,2.081 106.024,2.02 106.355,2.02 C106.528,2.02 106.688,2.043 106.84,2.091 C106.992,2.137 107.129,2.205 107.254,2.291 C107.379,2.377 107.489,2.476 107.587,2.589 C107.685,2.702 107.76,2.821 107.813,2.946 L107.831,2.946 L107.831,2.154 L108.393,2.154 L108.393,6.369 C108.394,6.706 108.356,7.011 108.281,7.284 L108.281,7.284 Z M106.996,6.06 C107.18,5.957 107.335,5.821 107.46,5.652 C107.585,5.483 107.677,5.288 107.74,5.069 C107.802,4.85 107.833,4.625 107.833,4.393 C107.833,4.168 107.806,3.942 107.753,3.717 C107.7,3.491 107.614,3.287 107.496,3.102 C107.377,2.918 107.225,2.77 107.038,2.658 C106.851,2.546 106.624,2.489 106.357,2.489 C106.09,2.489 105.861,2.544 105.672,2.655 C105.481,2.764 105.324,2.908 105.201,3.085 C105.076,3.263 104.985,3.466 104.928,3.695 C104.873,3.923 104.844,4.157 104.844,4.394 C104.844,4.626 104.874,4.85 104.933,5.07 C104.992,5.289 105.085,5.484 105.208,5.653 C105.333,5.822 105.49,5.958 105.68,6.061 C105.869,6.166 106.096,6.218 106.356,6.218 C106.598,6.217 106.812,6.166 106.996,6.06 L106.996,6.06 Z" id="Shape"></path>
            </g>
        </g>
    </g>
</svg>