<?xml version="1.0" encoding="UTF-8" standalone="no"?>
<svg width="332px" height="48px" viewBox="0 0 332 48" version="1.1" xmlns="http://www.w3.org/2000/svg" xmlns:xlink="http://www.w3.org/1999/xlink" xmlns:sketch="http://www.bohemiancoding.com/sketch/ns">
    <title>Untitled</title>
    <description>Created with Sketch (http://www.bohemiancoding.com/sketch)</description>
    <defs></defs>
    <g id="Page-1" stroke="none" stroke-width="1" fill="none" fill-rule="evenodd" sketch:type="MSPage">
        <g id="Group" sketch:type="MSLayerGroup">
            <path d="M3.78758392,13.9354839 L11.1217343,13.9354839 C12.338465,13.9354839 13.5342378,14.1015484 14.7276818,14.4325161 C15.9199615,14.7634839 16.9923147,15.2895484 17.9377552,16.0060645 C18.8890175,16.7190968 19.6551503,17.6434839 20.2408112,18.7815484 C20.8253077,19.9230968 21.1175559,21.2876129 21.1175559,22.8785806 C21.1175559,24.7505806 20.795035,26.4565161 20.1336923,27.9870968 C19.4781713,29.52 18.5676608,30.8276129 17.3928462,31.9145806 C16.2215245,33.0050323 14.839458,33.8446452 13.2419895,34.4415484 C11.6468497,35.036129 9.91198951,35.3310968 8.03158741,35.3310968 L0,35.3310968 L3.78758392,13.9354839 L3.78758392,13.9354839 Z M4.27544056,32.0643871 L8.18295105,32.0643871 C9.67679371,32.0643871 10.992493,31.8263226 12.1242273,31.3409032 C13.2559615,30.8624516 14.1990734,30.2109677 14.9593846,29.3969032 C15.7150385,28.5793548 16.2843986,27.6584516 16.6686294,26.6214194 C17.0528601,25.587871 17.2438112,24.5043871 17.2438112,23.3814194 C17.2438112,22.536 17.1005979,21.7323871 16.8211573,20.9659355 C16.5358951,20.2029677 16.1062552,19.539871 15.5322378,18.9754839 C14.9582203,18.4134194 14.2270175,17.9674839 13.3491084,17.6330323 C12.4723636,17.3020645 11.4232972,17.136 10.2147168,17.136 L6.91033217,17.136 L4.27544056,32.0643871 L4.27544056,32.0643871 Z" id="Shape" fill="#8DC63F" sketch:type="MSShapeGroup"></path>
            <path d="M25.6153846,35.3299355 L29.3994755,13.9354839 L42.9162483,13.9354839 L42.3399021,17.1975484 L32.4616783,17.1975484 L31.4906224,22.7264516 L40.9147552,22.7264516 L40.3395734,25.8723871 L30.9468776,25.8723871 L29.8593881,32.0063226 L40.5840839,32.0063226 L40.0065734,35.3287742 L25.6153846,35.3287742 L25.6153846,35.3299355 Z" id="Shape" fill="#8DC63F" sketch:type="MSShapeGroup"></path>
            <path d="M87.9480944,32.5219355 C87.5254406,33.0689032 87.0317622,33.5763871 86.4682238,34.047871 C85.8976993,34.5228387 85.2631364,34.9374194 84.5587133,35.2858065 C83.8473042,35.6388387 83.0718566,35.9152258 82.2230559,36.1172903 C81.3754196,36.3193548 80.4474441,36.4192258 79.4368007,36.4192258 C78.0046678,36.4192258 76.7006119,36.1962581 75.5281259,35.7572903 C74.3544755,35.3113548 73.3484895,34.6877419 72.5148252,33.8818065 C71.6753392,33.075871 71.0221469,32.1108387 70.5587413,30.9809032 C70.093007,29.8509677 69.8601399,28.6049032 69.8601399,27.2334194 C69.8601399,25.38 70.1814965,23.6485161 70.8288671,22.0354839 C71.4750734,20.4259355 72.3681189,19.0184516 73.5103322,17.82 C74.6548741,16.6215484 75.9938601,15.6739355 77.5272902,14.9794839 C79.0653776,14.2850323 80.7140769,13.9354839 82.4978392,13.9354839 C83.2849301,13.9354839 84.0464056,14.0179355 84.7822657,14.1770323 C85.5216189,14.3396129 86.2074126,14.5625806 86.8431399,14.8424516 C87.4823601,15.1269677 88.0517203,15.4683871 88.557042,15.8725161 C89.0623636,16.2754839 89.4768671,16.7179355 89.7982238,17.2010323 L86.8571119,19.4074839 C86.6987622,19.1659355 86.4891818,18.9069677 86.2213846,18.6375484 C85.9617378,18.3634839 85.6368881,18.1196129 85.2503287,17.900129 C84.8672622,17.6771613 84.4422797,17.4936774 83.9649021,17.3531613 C83.4886888,17.2091613 82.9577517,17.1406452 82.3732552,17.1406452 C81.102965,17.1406452 79.933972,17.4112258 78.8720979,17.9581935 C77.8148811,18.5016774 76.905535,19.2251613 76.1475524,20.1356129 C75.3895699,21.0390968 74.7980874,22.0691613 74.3754336,23.2130323 C73.9481224,24.3650323 73.7397063,25.5414194 73.7397063,26.748 C73.7397063,27.6375484 73.8747692,28.4690323 74.1460594,29.2424516 C74.422007,30.0205161 74.8155524,30.6929032 75.3278601,31.2689032 C75.8436608,31.8449032 76.4828811,32.3024516 77.2513427,32.643871 C78.0198042,32.9864516 78.9012063,33.1548387 79.8897273,33.1548387 C80.9585874,33.1548387 81.9762168,32.9353548 82.9472727,32.4929032 C83.9183287,32.0469677 84.7880874,31.3548387 85.556549,30.4083871 L87.9480944,32.5219355 L87.9480944,32.5219355 Z" id="Shape" fill="#727376" sketch:type="MSShapeGroup"></path>
            <path d="M105.599423,13.9354839 C107.132853,13.9354839 108.526563,14.1549677 109.764252,14.5869677 C111.008927,15.0189677 112.074294,15.6344516 112.961517,16.4299355 C113.853399,17.2254194 114.539192,18.1974194 115.022392,19.3459355 C115.505591,20.4944516 115.747773,21.7834839 115.747773,23.211871 C115.747773,25.0258065 115.440388,26.739871 114.826783,28.3517419 C114.209685,29.9647742 113.357392,31.3606452 112.26408,32.5532903 C111.170769,33.7412903 109.878357,34.6807742 108.384514,35.3752258 C106.890671,36.0731613 105.259437,36.4192258 103.479168,36.4192258 C101.901493,36.4192258 100.476346,36.2067097 99.2025629,35.7851613 C97.9322727,35.3636129 96.8459476,34.748129 95.9470804,33.9421935 C95.0517063,33.1362581 94.3554336,32.1607742 93.8722343,31.0122581 C93.3878706,29.8602581 93.1468531,28.5712258 93.1468531,27.1428387 C93.1468531,25.3323871 93.4647168,23.6183226 94.0992797,22.0064516 C94.735007,20.3934194 95.6082587,18.9929032 96.7201993,17.8014194 C97.8321399,16.6169032 99.1455105,15.6739355 100.661476,14.9794839 C102.177441,14.2850323 103.820318,13.9354839 105.599423,13.9354839 L105.599423,13.9354839 Z M103.480332,33.1548387 C104.829797,33.1548387 106.027899,32.8889032 107.071143,32.3407742 C108.107402,31.7972903 108.98764,31.0703226 109.702542,30.1668387 C110.420937,29.259871 110.965846,28.2298065 111.340762,27.0812903 C111.712185,25.9327742 111.904301,24.7563871 111.904301,23.5463226 C111.904301,22.6788387 111.759923,21.8543226 111.478154,21.0692903 C111.196385,20.2807742 110.781881,19.6037419 110.236972,19.0277419 C109.692063,18.4517419 109.016748,17.9941935 108.208699,17.6527742 C107.40065,17.3113548 106.469182,17.1383226 105.422444,17.1383226 C104.123045,17.1383226 102.957545,17.4089032 101.921287,17.955871 C100.878042,18.4993548 99.9943112,19.2228387 99.2654371,20.1332903 C98.543549,21.0367742 97.9800105,22.0668387 97.5876294,23.2107097 C97.1940839,24.3627097 96.9926538,25.5390968 96.9926538,26.7456774 C96.9926538,27.6352258 97.1370315,28.4667097 97.4222937,29.240129 C97.7040629,30.0181935 98.1150734,30.6905806 98.6634755,31.2665806 C99.2048916,31.8425806 99.8871923,32.300129 100.695241,32.6415484 C101.499797,32.9852903 102.426608,33.1548387 103.480332,33.1548387 L103.480332,33.1548387 Z" id="Shape" fill="#727376" sketch:type="MSShapeGroup"></path>
            <path d="M136.287818,35.3299355 L132.075252,35.3299355 L128.015213,26.2010323 L125.167248,26.2010323 L123.589573,35.3299355 L119.926573,35.3299355 L123.712993,13.9354839 L130.07958,13.9354839 C132.439689,13.9354839 134.259545,14.4220645 135.547301,15.4010323 C136.82807,16.3765161 137.470783,17.7294194 137.470783,19.4655484 C137.470783,21.176129 136.958476,22.5615484 135.940846,23.6194839 C134.919724,24.6774194 133.551629,25.3974194 131.83307,25.7794839 L136.287818,35.3299355 L136.287818,35.3299355 Z M128.501906,23.1514839 C130.136633,23.1514839 131.399937,22.8890323 132.288325,22.3629677 C133.176713,21.8450323 133.620325,21.0019355 133.620325,19.8569032 C133.620325,18.8059355 133.248902,18.0824516 132.504892,17.6829677 C131.750402,17.28 130.754895,17.0744516 129.50207,17.0744516 L126.801976,17.0744516 L125.712157,23.1503226 L128.501906,23.1503226 L128.501906,23.1514839 Z" id="Shape" fill="#727376" sketch:type="MSShapeGroup"></path>
            <path d="M142.048951,35.3299355 L145.835371,13.9354839 L159.352143,13.9354839 L158.774633,17.1975484 L148.892916,17.1975484 L147.925353,22.7264516 L157.349486,22.7264516 L156.775469,25.8723871 L147.383937,25.8723871 L146.290626,32.0063226 L157.01765,32.0063226 L156.443633,35.3287742 L142.048951,35.3287742 L142.048951,35.3299355 Z" id="Shape" fill="#727376" sketch:type="MSShapeGroup"></path>
            <path d="M51.6732168,13.9354839 L47.7377622,13.9354839 L50.7976364,32.7344516 L53.4802657,27.8129032 L51.6732168,13.9354839 Z" id="Shape" fill="#8DC63F" sketch:type="MSShapeGroup"></path>
            <path d="M72.5424266,0 L51.2307692,35.9233548 L54.7636796,35.9233548 L76.8461538,0 L72.5424266,0 Z" id="Shape" fill="#8DC63F" sketch:type="MSShapeGroup"></path>
            <path d="M180.91564,19.7592258 L180.91564,18.7419355 L181.543217,18.7419355 L181.543217,19.7592258 L184.500629,19.7592258 L184.500629,20.3259355 L181.543217,20.3259355 L181.543217,21.4024516 L185.98865,21.4024516 C185.932762,20.5744516 185.887353,19.6872258 185.873381,18.7419355 L186.559175,18.7419355 C186.573147,19.7011613 186.602255,20.5883871 186.660472,21.4024516 L190.030059,21.4024516 L190.030059,21.9691613 L186.705881,21.9691613 C186.82115,23.7726452 187.024909,25.3136774 187.317157,26.5783226 C187.346266,26.7385806 187.375374,26.8837419 187.405647,27.0138065 C188.015759,25.9082581 188.423276,24.731871 188.658472,23.5090323 L189.284885,23.6263226 C188.994965,25.1975484 188.440741,26.6352258 187.63735,27.944 C187.872545,28.7882581 188.133357,29.5442581 188.424441,30.2143226 C188.805178,30.9250323 189.067154,31.2885161 189.227832,31.2885161 C189.286049,31.2885161 189.359402,31.1421935 189.445563,30.8530323 C189.531724,30.4465806 189.620213,29.8194839 189.67843,28.9636129 L190.246626,29.2388387 C190.131357,30.3722581 189.98465,31.1143226 189.796028,31.4778065 C189.649322,31.7692903 189.477,31.9156129 189.284885,31.9156129 C188.90764,31.9156129 188.529231,31.5811613 188.162465,30.9261935 C187.798028,30.3165161 187.462699,29.5605161 187.171615,28.6291613 C186.282063,29.8659355 185.219024,30.9703226 183.992979,31.9736774 L183.481836,31.508 C184.95472,30.3165161 186.091112,29.1099355 186.908476,27.8743226 C186.908476,27.8603871 186.921283,27.8452903 186.937584,27.8162581 C186.851423,27.5247742 186.776906,27.2332903 186.718689,26.9150968 C186.397332,25.5772903 186.164465,23.9340645 186.032895,21.9703226 L176.979021,21.9703226 L176.979021,21.4036129 L180.914476,21.4036129 L180.914476,20.3270968 L177.897682,20.3270968 L177.897682,19.7603871 L180.91564,19.7603871 L180.91564,19.7592258 Z M184.735825,22.7112258 L184.735825,26.1126452 L183.074318,26.1126452 L183.074318,27.088129 L185.129371,27.088129 L185.129371,27.5956129 L183.074318,27.5956129 L183.074318,28.7313548 L185.581133,28.7313548 L185.581133,29.2388387 L176.980185,29.2388387 L176.980185,28.7313548 L179.488164,28.7313548 L179.488164,27.5956129 L177.549545,27.5956129 L177.549545,27.088129 L179.488164,27.088129 L179.488164,26.1126452 L178.01528,26.1126452 L178.01528,22.7112258 L184.735825,22.7112258 L184.735825,22.7112258 Z M180.406825,29.8659355 C179.677951,30.5197419 178.745318,31.1154839 177.607762,31.6821935 L177.039566,31.2316129 C178.234175,30.6939355 179.166808,30.1411613 179.836301,29.5303226 L180.406825,29.8659355 L180.406825,29.8659355 Z M181.033238,24.0792258 L181.033238,23.2210323 L178.641692,23.2210323 L178.641692,24.0792258 L181.033238,24.0792258 L181.033238,24.0792258 Z M181.033238,25.6051613 L181.033238,24.5867097 L178.641692,24.5867097 L178.641692,25.6051613 L181.033238,25.6051613 L181.033238,25.6051613 Z M182.446741,26.1126452 L180.115741,26.1126452 L180.115741,27.088129 L182.446741,27.088129 L182.446741,26.1126452 L182.446741,26.1126452 Z M182.446741,28.7313548 L182.446741,27.5956129 L180.115741,27.5956129 L180.115741,28.7313548 L182.446741,28.7313548 L182.446741,28.7313548 Z M181.660815,24.0792258 L184.109413,24.0792258 L184.109413,23.2210323 L181.660815,23.2210323 L181.660815,24.0792258 L181.660815,24.0792258 Z M181.660815,25.6051613 L184.109413,25.6051613 L184.109413,24.5867097 L181.660815,24.5867097 L181.660815,25.6051613 L181.660815,25.6051613 Z M184.050031,30.7229677 L183.584297,31.1747097 C183.117399,30.7369032 182.548038,30.3304516 181.877381,29.924 L182.330308,29.5314839 C182.91364,29.8659355 183.481836,30.2584516 184.050031,30.7229677 L184.050031,30.7229677 Z M189.401318,20.6034839 L188.949556,21.1272258 C188.422112,20.4292903 187.870217,19.8474839 187.288049,19.3667097 L187.695566,18.9021935 C188.308007,19.3957419 188.876203,19.9624516 189.401318,20.6034839 L189.401318,20.6034839 Z" id="Shape" fill="#727376" sketch:type="MSShapeGroup"></path>
            <path d="M202.92042,21.2433548 C202.950692,20.4861935 202.978636,19.6430968 202.978636,18.7419355 L203.723811,18.7419355 C203.723811,19.6442581 203.693538,20.4861935 203.66443,21.2433548 L208.622171,21.2433548 L208.622171,21.9261935 L203.636486,21.9261935 C203.561969,23.1188387 203.446699,24.1221935 203.301157,24.9350968 L209.759727,24.9350968 L209.759727,25.6190968 L204.380497,25.6190968 C204.744934,26.8698065 205.429563,27.9892903 206.450685,28.9485161 C207.442699,29.9367742 208.666416,30.752 210.153273,31.4197419 L209.585077,32.0898065 C208.038839,31.3628387 206.756906,30.4326452 205.706675,29.2980645 C204.656444,28.2215484 203.941542,26.9847742 203.579434,25.6190968 L203.155615,25.6190968 C203.097399,25.8513548 203.02521,26.0545806 202.968157,26.243871 C202.515231,27.5236129 201.816629,28.6140645 200.883997,29.5454194 C199.891983,30.5197419 198.636829,31.319871 197.120864,31.9876129 L196.772727,31.3628387 C198.200203,30.7218065 199.382003,29.9658065 200.315801,29.0356129 C201.189052,28.1646452 201.845738,27.1020645 202.282364,25.8803871 C202.311472,25.7944516 202.325444,25.7073548 202.354552,25.6190968 L197.120864,25.6190968 L197.120864,24.9350968 L202.529203,24.9350968 C202.689881,24.1210323 202.807479,23.1188387 202.89364,21.9261935 L198.200203,21.9261935 L198.200203,21.2433548 L202.92042,21.2433548 L202.92042,21.2433548 Z" id="Shape" fill="#727376" sketch:type="MSShapeGroup"></path>
            <path d="M223.883119,25.2126452 L223.883119,25.7793548 L222.527832,25.7793548 L222.527832,30.2723871 C222.527832,30.6939355 222.600021,30.9273548 222.760699,30.9854194 C222.834052,31.1027097 224.422206,31.1747097 227.528654,31.1747097 C228.766343,31.1747097 229.540626,31.0887742 229.845682,30.9424516 C230.00636,30.796129 230.151902,30.1272258 230.268336,28.9067097 L230.895913,29.2411613 C230.706126,30.5929032 230.517503,31.3059355 230.341689,31.391871 C230.282308,31.624129 229.334538,31.7414194 227.528654,31.7414194 C224.611993,31.7414194 223.022675,31.6984516 222.731591,31.624129 C222.426535,31.5660645 222.206476,31.480129 222.088878,31.3628387 C221.958472,31.2316129 221.899091,30.9563871 221.899091,30.5487742 L221.899091,25.7793548 L220.586885,25.7793548 C220.530997,27.9614194 220.324909,29.4292903 219.975608,30.1713548 C219.596035,31.0423226 218.984759,31.7402581 218.138287,32.2500645 L217.730769,31.7402581 C218.502724,31.2594839 219.056948,30.6207742 219.408577,29.8067097 C219.727605,29.1366452 219.917392,27.7849032 219.960472,25.7781935 L218.25472,25.7781935 L218.25472,25.2126452 L223.883119,25.2126452 L223.883119,25.2126452 Z M224.991566,20.5593548 L230.385934,20.5593548 L230.385934,22.8273548 L229.759521,22.8273548 L229.759521,21.1260645 L218.985923,21.1260645 L218.985923,22.8865806 L218.35951,22.8865806 L218.35951,20.5593548 L224.291801,20.5593548 C224.058934,20.0646452 223.753878,19.5861935 223.375469,19.1344516 L223.884283,18.7419355 C224.394262,19.2935484 224.758699,19.8892903 224.991566,20.5593548 L224.991566,20.5593548 Z M223.489573,22.8273548 L223.489573,23.3940645 L219.393441,23.3940645 L219.393441,22.8273548 L223.489573,22.8273548 L223.489573,22.8273548 Z M226.682182,21.635871 L226.682182,23.3371613 L229.977252,23.3371613 L229.977252,23.903871 L226.682182,23.903871 L226.682182,25.2126452 L229.291458,25.2126452 C228.957294,26.260129 228.343689,27.2623226 227.440164,28.1936774 C228.066577,28.7313548 228.651073,29.2701935 229.188997,29.807871 L228.723262,30.2723871 C228.169038,29.6905806 227.600843,29.1378065 227.003538,28.6140645 C226.084878,29.4153548 225.021839,30.0830968 223.826066,30.6068387 L223.550119,30.040129 C224.67021,29.5744516 225.663388,28.9636129 226.538969,28.2227097 C225.896255,27.6989677 225.23957,27.2205161 224.570077,26.7536774 L224.977594,26.3472258 C225.67736,26.828 226.349182,27.3203871 226.975594,27.8162581 C227.688168,27.1032258 228.184175,26.4192258 228.462451,25.7805161 L224.409399,25.7805161 L224.409399,25.2126452 L226.056934,25.2126452 L226.056934,21.635871 L226.682182,21.635871 L226.682182,21.635871 Z" id="Shape" fill="#727376" sketch:type="MSShapeGroup"></path>
            <path d="M250.38107,19.9032258 L250.38107,20.4699355 L244.520969,20.4699355 L244.520969,22.5196129 L248.733535,22.5196129 C248.107122,22.1131613 247.479545,21.7345806 246.853133,21.3861935 L247.203598,20.9216774 C248.572857,21.6196129 249.812874,22.4336774 250.95043,23.363871 L250.556885,23.8876129 C250.20642,23.6100645 249.871091,23.3499355 249.535762,23.0886452 L249.535762,31.0411613 C249.535762,31.7971613 249.187626,32.1745806 248.501832,32.1745806 C248.005825,32.1745806 247.437629,32.1165161 246.794916,32.0003871 L246.736699,31.3187097 C247.422493,31.4627097 248.005825,31.5509677 248.501832,31.5509677 C248.764972,31.5509677 248.90935,31.3338065 248.90935,30.9261935 L248.90935,23.0898065 L244.522133,23.0898065 L244.522133,32.0015484 L243.894556,32.0015484 L243.894556,23.0898065 L239.740206,23.0898065 L239.740206,32.4103226 L239.112629,32.4103226 L239.112629,23.0596129 C238.706276,23.2790968 238.29643,23.4823226 237.859804,23.6576774 L237.524476,23.147871 C239.099822,22.4778065 240.33751,21.7218065 241.213091,20.879871 L241.796423,21.2131613 C241.271308,21.6939355 240.703112,22.1294194 240.060399,22.5219355 L243.89572,22.5219355 L243.89572,20.4722581 L238.093836,20.4722581 L238.093836,19.9055484 L250.38107,19.9055484 L250.38107,19.9032258 Z M243.441629,27.4063226 C243.106301,27.8708387 242.741864,28.3086452 242.333182,28.7150968 C242.769808,29.0785806 243.193626,29.456 243.615115,29.8485161 L243.208762,30.2410323 C242.814052,29.8485161 242.391399,29.456 241.954773,29.0785806 C241.458766,29.5430968 240.93365,29.9646452 240.365455,30.3583226 L239.971909,30.0087742 C240.556406,29.6162581 241.094329,29.1935484 241.576364,28.7580645 C241.124601,28.4085161 240.643731,28.0450323 240.132587,27.6815484 L240.540105,27.3470968 C241.008168,27.6815484 241.487874,28.0310968 241.954773,28.3945806 C242.36229,28.0020645 242.712755,27.5956129 243.031783,27.1729032 L243.441629,27.4063226 L243.441629,27.4063226 Z M243.441629,23.7703226 C243.106301,24.2371613 242.741864,24.6575484 242.348318,25.0500645 C242.784944,25.4286452 243.22157,25.8060645 243.660524,26.2125161 L243.266979,26.6050323 C242.873434,26.1985806 242.449615,25.8060645 241.983881,25.3996129 C241.504175,25.864129 240.979059,26.2868387 240.424836,26.6654194 L240.017318,26.3309677 C240.60065,25.9384516 241.138573,25.532 241.605472,25.0941935 C241.138573,24.7307097 240.657703,24.3672258 240.132587,23.9886452 L240.540105,23.6553548 C241.02214,24.0025806 241.504175,24.3660645 241.983881,24.7446452 C242.377427,24.352129 242.727892,23.9456774 243.032948,23.5392258 L243.441629,23.7703226 L243.441629,23.7703226 Z M248.399371,27.4063226 C248.047741,27.8708387 247.670497,28.3225806 247.245514,28.744129 C247.684469,29.1227097 248.091986,29.5140645 248.499503,29.9065806 L248.105958,30.2990968 C247.72522,29.8926452 247.304895,29.500129 246.865941,29.0936774 C246.354797,29.572129 245.802902,30.0099355 245.204434,30.4163871 L244.810888,30.0668387 C245.422164,29.6603871 245.976388,29.2388387 246.501503,28.7731613 C246.034605,28.3945806 245.553734,28.0032258 245.028619,27.6246452 L245.436136,27.2901935 C245.932143,27.6397419 246.414178,28.0171613 246.879913,28.4247742 C247.289759,28.0183226 247.654196,27.6107097 247.98836,27.1740645 L248.399371,27.4063226 L248.399371,27.4063226 Z M248.399371,23.7703226 C248.047741,24.2220645 247.684469,24.6436129 247.290923,25.036129 C247.713577,25.4135484 248.135066,25.8060645 248.55772,26.2136774 L248.164175,26.6061935 C247.770629,26.1997419 247.346811,25.792129 246.910185,25.3856774 C246.399042,25.8501935 245.844818,26.2729032 245.26265,26.6654194 L244.855133,26.3309677 C245.468738,25.9384516 246.035769,25.5169032 246.531776,25.0651613 C246.081178,24.6865806 245.600308,24.3230968 245.090329,23.9456774 L245.483874,23.596129 C245.96358,23.9456774 246.445615,24.3230968 246.925322,24.7156129 C247.318867,24.3381935 247.670497,23.9456774 247.990689,23.5380645 L248.399371,23.7703226 L248.399371,23.7703226 Z" id="Shape" fill="#727376" sketch:type="MSShapeGroup"></path>
            <path d="M264.006126,30.796129 C262.286402,31.3779355 260.523598,31.7983226 258.715385,32.0898065 L258.482517,31.463871 C260.376892,31.1735484 262.082643,30.7670968 263.61258,30.2723871 L264.006126,30.796129 L264.006126,30.796129 Z M262.592622,22.4348387 C261.500476,23.1908387 260.261622,23.8748387 258.890035,24.4845161 L258.541899,24.0350968 C259.912322,23.4230968 261.137203,22.7414194 262.185105,21.9854194 L262.592622,22.4348387 L262.592622,22.4348387 Z M262.36092,20.5593548 L262.025591,21.0830968 C261.253636,20.5303226 260.319839,20.0356129 259.226528,19.600129 L259.460559,19.0903226 C260.595787,19.511871 261.5715,20.0065806 262.36092,20.5593548 L262.36092,20.5593548 Z M269.473846,24.2522581 L269.473846,29.8787097 L260.770437,29.8787097 L260.770437,24.2522581 L269.473846,24.2522581 L269.473846,24.2522581 Z M268.846269,26.0116129 L268.846269,24.820129 L261.39685,24.820129 L261.39685,26.0116129 L268.846269,26.0116129 L268.846269,26.0116129 Z M268.846269,27.6687742 L268.846269,26.5341935 L261.39685,26.5341935 L261.39685,27.6687742 L268.846269,27.6687742 L268.846269,27.6687742 Z M268.846269,29.312 L268.846269,28.1774194 L261.39685,28.1774194 L261.39685,29.312 L268.846269,29.312 L268.846269,29.312 Z M265.552364,18.916129 C265.391685,19.2947097 265.187927,19.6430968 264.955059,19.9926452 L271.238979,19.9926452 C270.989811,20.7776774 270.524077,21.5336774 269.824311,22.2745806 L269.138517,21.9250323 C269.649661,21.4895484 270.02807,21.0087742 270.260937,20.5152258 L267.183598,20.5152258 C267.053192,21.0366452 266.878542,21.4744516 266.645675,21.824 C268.408479,22.4917419 270.042042,23.2477419 271.528899,24.092 L271.077136,24.6018065 C269.587951,23.6994839 267.999797,22.9295484 266.280073,22.2885161 C265.886528,22.7263226 265.433601,23.0584516 264.924787,23.2930323 C264.16564,23.6716129 263.202734,23.9468387 262.023262,24.092 L261.848612,23.5252903 C262.927951,23.3940645 263.801203,23.1618065 264.486997,22.8412903 C265.084301,22.58 265.580308,22.2165161 265.98899,21.7218065 C266.250965,21.3873548 266.441916,20.9809032 266.559514,20.5163871 L264.561514,20.5163871 C264.532406,20.5454194 264.503297,20.5744516 264.486997,20.6023226 C263.992154,21.1690323 263.423958,21.6498065 262.810353,22.0423226 L262.416808,21.5905806 C263.016441,21.184129 263.525255,20.7335484 263.963045,20.267871 C264.383371,19.7743226 264.704727,19.2656774 264.924787,18.7419355 L265.552364,18.916129 L265.552364,18.916129 Z M271.704713,31.463871 L271.471846,32.0898065 C269.810339,31.5230968 268.117395,31.1166452 266.397671,30.8530323 L266.57465,30.2712258 C268.292045,30.5325161 270.014098,30.9273548 271.704713,31.463871 L271.704713,31.463871 Z" id="Shape" fill="#727376" sketch:type="MSShapeGroup"></path>
            <path d="M283.582101,21.1272258 L283.582101,21.6939355 L278.276224,21.6939355 L278.276224,21.1272258 L283.582101,21.1272258 L283.582101,21.1272258 Z M283.01507,23.0027097 L283.01507,23.5694194 L278.903801,23.5694194 L278.903801,23.0027097 L283.01507,23.0027097 L283.01507,23.0027097 Z M283.01507,24.9792258 L283.01507,25.5459355 L278.903801,25.5459355 L278.903801,24.9792258 L283.01507,24.9792258 L283.01507,24.9792258 Z M282.898636,31.7414194 L282.272224,31.7414194 L282.272224,30.7821935 L279.764245,30.7821935 L279.764245,31.7414194 L279.137832,31.7414194 L279.137832,27.0289032 L282.898636,27.0289032 L282.898636,31.7414194 L282.898636,31.7414194 Z M281.701699,20.6034839 L281.133503,21.0099355 C280.785367,20.3410323 280.332441,19.6872258 279.764245,19.0763871 L280.275388,18.7419355 C280.828448,19.3098065 281.310483,19.9345806 281.701699,20.6034839 L281.701699,20.6034839 Z M282.272224,30.2154839 L282.272224,27.5967742 L279.764245,27.5967742 L279.764245,30.2154839 L282.272224,30.2154839 L282.272224,30.2154839 Z M289.501584,19.7023226 C289.501584,24.704 289.692535,28.1344516 290.072108,29.996 C290.202514,30.7380645 290.377164,31.1154839 290.580923,31.1154839 C290.755573,31.1154839 290.873171,30.7821935 290.931388,30.1272258 C290.931388,30.1272258 290.960497,29.4734194 291.032685,28.1634839 L291.617182,28.3980645 C291.544993,29.7637419 291.485612,30.4477419 291.456503,30.4477419 C291.397122,30.9714839 291.281853,31.3349677 291.078094,31.5381935 C290.903444,31.7123871 290.742766,31.7994839 290.582087,31.7994839 C290.102381,31.7994839 289.765888,31.436 289.577266,30.7229677 C289.066122,29.2249032 288.819283,25.7654194 288.819283,20.3270968 L286.193706,20.3270968 L286.193706,24.6470968 L288.483955,24.6470968 L288.483955,25.2126452 L286.193706,25.2126452 L286.193706,32.1327742 L285.524213,32.1327742 L285.524213,25.2126452 L283.469161,25.2126452 L283.469161,24.6459355 L285.524213,24.6459355 L285.524213,20.3259355 L283.410944,20.3259355 L283.410944,19.7011613 L289.501584,19.7011613 L289.501584,19.7023226 Z" id="Shape" fill="#727376" sketch:type="MSShapeGroup"></path>
            <path d="M303.723944,24.4694194 C304.162899,23.5392258 304.556444,22.5776774 304.876636,21.5754839 L305.503049,21.7496774 C305.181692,22.7228387 304.817255,23.6251613 304.42371,24.4694194 L312.04778,24.4694194 L312.04778,25.0941935 L308.812091,25.0941935 C308.608332,26.548129 307.979591,27.8139355 306.960797,28.888129 C308.766682,29.7184516 310.386273,30.6056774 311.814913,31.5649032 L311.421367,32.1896774 C309.93451,31.1723871 308.257867,30.2712258 306.406573,29.4269677 C305.051287,30.6637419 302.790147,31.5509677 299.627811,32.1327742 L299.407752,31.5068387 C302.324413,30.9993548 304.437682,30.2143226 305.72078,29.123871 C304.68685,28.6860645 303.621483,28.2796129 302.514199,27.8731613 C302.281332,28.2227097 302.032164,28.5432258 301.799297,28.8463226 L301.288154,28.3969032 C302.105517,27.3633548 302.804119,26.2589677 303.417724,25.0953548 L299.234266,25.0953548 L299.234266,24.4705806 L303.723944,24.4705806 L303.723944,24.4694194 Z M305.968783,20.384 L311.537801,20.384 L311.537801,23.0015484 L310.854336,23.0015484 L310.854336,21.0087742 L300.313605,21.0087742 L300.313605,23.1025806 L299.63014,23.1025806 L299.63014,20.3851613 L305.271346,20.3851613 C305.067587,19.9473548 304.804448,19.5269677 304.467955,19.1344516 L304.99307,18.7419355 C305.43086,19.2354839 305.765024,19.7859355 305.968783,20.384 L305.968783,20.384 Z M308.11349,25.0941935 L304.13379,25.0941935 C303.754217,25.8792258 303.345535,26.6061935 302.908909,27.2762581 C304.103517,27.6978065 305.225937,28.1332903 306.276168,28.5850323 C307.237909,27.5793548 307.851514,26.4169032 308.11349,25.0941935 L308.11349,25.0941935 Z" id="Shape" fill="#727376" sketch:type="MSShapeGroup"></path>
            <path d="M325.908031,19.7430968 C327.831514,22.3885161 330.004164,24.2210323 332.453927,25.2545806 L332.060381,25.9966452 C329.84465,24.9781935 327.759325,23.2339355 325.80557,20.7766452 C324.961427,21.8508387 323.970577,22.8263226 322.848157,23.7263226 C321.870115,24.5125161 320.704615,25.2685161 319.363301,25.9954839 L319.027972,25.2534194 C320.397231,24.5984516 321.637248,23.8134194 322.716587,22.8971613 C323.621276,22.1411613 324.436311,21.2969032 325.165185,20.3667097 L321.361301,20.3667097 L321.361301,19.7419355 L325.908031,19.7419355 L325.908031,19.7430968 Z M329.27529,24.5705806 L329.27529,25.1953548 L326.082682,25.1953548 L326.082682,27.872129 L330.295248,27.872129 L330.295248,28.4818065 L326.082682,28.4818065 L326.082682,31.4477419 L332.002164,31.4477419 L332.002164,32.0725161 L319.47857,32.0725161 L319.47857,31.4477419 L325.398052,31.4477419 L325.398052,28.4818065 L321.185486,28.4818065 L321.185486,27.872129 L325.398052,27.872129 L325.398052,25.1953548 L322.148392,25.1953548 L322.148392,24.5705806 L329.27529,24.5705806 L329.27529,24.5705806 Z" id="Shape" fill="#727376" sketch:type="MSShapeGroup"></path>
        </g>
    </g>
</svg>