<?xml version="1.0" encoding="utf-8"?>
<!-- Generator: Adobe Illustrator 16.0.0, SVG Export Plug-In . SVG Version: 6.00 Build 0)  -->
<!DOCTYPE svg PUBLIC "-//W3C//DTD SVG 1.0//EN" "http://www.w3.org/TR/2001/REC-SVG-20010904/DTD/svg10.dtd">
<svg version="1.0" id="Layer_1" xmlns="http://www.w3.org/2000/svg" xmlns:xlink="http://www.w3.org/1999/xlink" x="0px" y="0px"
	 width="282px" height="48px" viewBox="0 0 282 48" enable-background="new 0 0 282 48" xml:space="preserve">
<g>
	<path fill="#8CC341" d="M5.719,15.296h7.194c1.194,0,2.37,0.163,3.54,0.487c1.17,0.326,2.223,0.845,3.15,1.548
		c0.934,0.701,1.686,1.61,2.26,2.731c0.574,1.123,0.861,2.465,0.861,4.031c0,1.839-0.318,3.52-0.966,5.025
		c-0.643,1.508-1.54,2.795-2.689,3.861c-1.15,1.077-2.508,1.901-4.073,2.489c-1.566,0.584-3.27,0.874-5.114,0.874H2L5.719,15.296z
		 M6.196,33.135h3.835c1.465,0,2.754-0.235,3.865-0.716c1.111-0.47,2.039-1.109,2.783-1.911c0.744-0.803,1.301-1.711,1.678-2.731
		c0.376-1.018,0.562-2.083,0.562-3.189c0-0.83-0.138-1.621-0.415-2.375c-0.28-0.752-0.701-1.402-1.264-1.958
		c-0.562-0.554-1.28-0.991-2.143-1.322c-0.861-0.326-1.889-0.488-3.076-0.488H8.78L6.196,33.135z"/>
	<path fill="#8CC341" d="M26.851,36.346l3.714-21.049h13.262l-0.562,3.209h-9.695l-0.953,5.44h9.247L41.3,27.042h-9.218
		l-1.069,6.034H41.54l-0.567,3.27H26.851z"/>
	<path fill="#727376" d="M87.475,33.046c-0.414,0.537-0.899,1.036-1.453,1.499c-0.56,0.467-1.183,0.877-1.874,1.22
		c-0.698,0.346-1.459,0.62-2.29,0.818c-0.834,0.2-1.744,0.297-2.735,0.297c-1.406,0-2.685-0.219-3.834-0.652
		c-1.153-0.439-2.139-1.051-2.959-1.844c-0.823-0.795-1.463-1.744-1.919-2.854c-0.455-1.114-0.683-2.339-0.683-3.688
		c0-1.825,0.315-3.53,0.951-5.115c0.634-1.584,1.511-2.967,2.631-4.148c1.123-1.18,2.438-2.112,3.943-2.795
		c1.509-0.683,3.127-1.026,4.876-1.026c0.773,0,1.521,0.082,2.243,0.236c0.725,0.161,1.398,0.38,2.022,0.656
		c0.626,0.28,1.186,0.617,1.682,1.014c0.497,0.397,0.903,0.833,1.218,1.306l-2.886,2.172c-0.155-0.236-0.362-0.492-0.623-0.757
		c-0.256-0.269-0.574-0.51-0.952-0.727c-0.376-0.217-0.794-0.4-1.261-0.537c-0.467-0.142-0.989-0.209-1.562-0.209
		c-1.246,0-2.394,0.265-3.435,0.802c-1.038,0.537-1.931,1.249-2.674,2.145c-0.744,0.888-1.326,1.903-1.74,3.028
		c-0.417,1.135-0.622,2.292-0.622,3.479c0,0.874,0.133,1.692,0.397,2.455c0.271,0.766,0.658,1.427,1.162,1.994
		c0.506,0.567,1.133,1.019,1.887,1.352c0.755,0.337,1.619,0.505,2.589,0.505c1.049,0,2.047-0.217,3.001-0.651
		c0.952-0.44,1.806-1.121,2.56-2.053L87.475,33.046z"/>
	<path fill="#727376" d="M104.812,14.757c1.505,0,2.873,0.215,4.088,0.64c1.222,0.426,2.267,1.032,3.138,1.815
		c0.875,0.783,1.549,1.738,2.022,2.868c0.476,1.131,0.713,2.399,0.713,3.803c0,1.786-0.301,3.473-0.903,5.06
		c-0.606,1.585-1.441,2.96-2.516,4.132c-1.072,1.17-2.341,2.094-3.809,2.774c-1.465,0.69-3.066,1.029-4.812,1.029
		c-1.547,0-2.948-0.209-4.198-0.622c-1.247-0.413-2.313-1.021-3.196-1.814c-0.877-0.796-1.561-1.753-2.036-2.884
		c-0.475-1.136-0.712-2.401-0.712-3.807c0-1.782,0.312-3.467,0.935-5.056c0.624-1.586,1.48-2.964,2.572-4.136
		c1.091-1.165,2.38-2.094,3.867-2.778C101.455,15.1,103.067,14.757,104.812,14.757z M102.734,33.669c1.325,0,2.5-0.262,3.523-0.802
		c1.016-0.534,1.882-1.25,2.583-2.139c0.704-0.892,1.24-1.905,1.608-3.038c0.364-1.129,0.552-2.285,0.552-3.477
		c0-0.854-0.142-1.665-0.417-2.437c-0.276-0.775-0.684-1.441-1.219-2.007c-0.535-0.567-1.197-1.018-1.991-1.354
		c-0.794-0.335-1.707-0.505-2.734-0.505c-1.275,0-2.42,0.265-3.435,0.802c-1.024,0.537-1.892,1.249-2.608,2.145
		c-0.707,0.888-1.259,1.903-1.647,3.028c-0.387,1.135-0.584,2.292-0.584,3.479c0,0.874,0.141,1.692,0.422,2.455
		c0.276,0.766,0.679,1.427,1.219,1.994c0.531,0.567,1.2,1.019,1.994,1.352C100.789,33.501,101.7,33.669,102.734,33.669z"/>
	<path fill="#727376" d="M135.589,36.346h-4.134l-3.983-8.982h-2.795l-1.548,8.982h-3.594l3.715-21.049h6.249
		c2.315,0,4.101,0.477,5.366,1.44c1.258,0.96,1.889,2.292,1.889,4c0,1.682-0.503,3.044-1.502,4.087
		c-1.003,1.041-2.344,1.749-4.031,2.123L135.589,36.346z M127.949,24.362c1.604,0,2.844-0.257,3.715-0.776
		c0.871-0.509,1.306-1.338,1.306-2.464c0-1.034-0.364-1.746-1.094-2.139c-0.741-0.397-1.718-0.598-2.947-0.598h-2.65l-1.068,5.978
		H127.949z"/>
	<path fill="#727376" d="M141.061,36.346l3.716-21.049h13.265l-0.566,3.209h-9.698l-0.951,5.44h9.25l-0.565,3.096h-9.214
		l-1.073,6.034h10.526l-0.563,3.27H141.061z"/>
	<polygon fill="#8CC341" points="52.331,15.296 48.466,15.296 51.471,33.793 54.103,28.948 	"/>
	<polygon fill="#8CC341" points="72.355,1 51.886,36.346 55.278,36.346 76.489,1 	"/>
</g>
<g>
	<path fill="#727376" d="M178.259,16.04v-1.707h1.049v1.707h4.951v0.953h-4.951v1.804h7.439c-0.096-1.39-0.17-2.878-0.194-4.465
		h1.147c0.021,1.609,0.071,3.098,0.17,4.465h5.635v0.951h-5.562c0.196,3.023,0.538,5.61,1.027,7.733
		c0.047,0.267,0.096,0.512,0.146,0.729c1.023-1.853,1.706-3.83,2.097-5.878l1.048,0.195c-0.485,2.633-1.415,5.049-2.754,7.246
		c0.388,1.413,0.828,2.681,1.315,3.804c0.636,1.195,1.073,1.806,1.342,1.806c0.097,0,0.22-0.243,0.363-0.731
		c0.148-0.683,0.294-1.731,0.394-3.171l0.95,0.465c-0.196,1.901-0.438,3.145-0.757,3.754c-0.243,0.485-0.535,0.734-0.854,0.734
		c-0.634,0-1.268-0.563-1.877-1.661c-0.611-1.024-1.172-2.291-1.657-3.854c-1.49,2.071-3.271,3.928-5.319,5.61l-0.854-0.78
		c2.463-2.001,4.366-4.024,5.732-6.098c0-0.026,0.025-0.05,0.05-0.101c-0.146-0.487-0.268-0.973-0.368-1.51
		c-0.533-2.244-0.926-5.001-1.145-8.294h-15.149v-0.951h6.587v-1.805h-5.049v-0.952L178.259,16.04L178.259,16.04z M184.648,20.992
		v5.709h-2.778v1.635h3.438v0.854h-3.438v1.901h4.195v0.856h-14.393v-0.856h4.194v-1.901h-3.244v-0.854h3.244v-1.635h-2.463v-5.709
		H184.648z M177.404,32.992c-1.221,1.1-2.78,2.098-4.683,3.05l-0.951-0.754c2.002-0.904,3.562-1.832,4.685-2.855L177.404,32.992z
		 M178.454,23.284v-1.439h-4.002v1.439H178.454z M178.454,25.847v-1.708h-4.002v1.708H178.454z M180.819,26.701h-3.902v1.635h3.902
		V26.701z M180.819,31.089v-1.9h-3.902v1.9H180.819z M179.502,23.284h4.1v-1.439h-4.1V23.284z M179.502,25.847h4.1v-1.708h-4.1
		V25.847z M183.503,34.432l-0.781,0.756c-0.779-0.731-1.73-1.413-2.851-2.098l0.754-0.657
		C181.602,32.992,182.552,33.653,183.503,34.432z M192.455,17.454l-0.756,0.879c-0.877-1.171-1.805-2.146-2.78-2.952l0.684-0.78
		C190.625,15.43,191.578,16.382,192.455,17.454z"/>
	<path fill="#727376" d="M210.588,18.603c0.048-1.27,0.098-2.684,0.098-4.195h1.244c0,1.512-0.05,2.925-0.098,4.195h8.292v1.146
		h-8.343c-0.121,2-0.317,3.682-0.561,5.048h10.804v1.148h-8.999c0.61,2.098,1.757,3.975,3.463,5.585
		c1.659,1.658,3.708,3.023,6.198,4.145l-0.951,1.125c-2.587-1.221-4.734-2.781-6.49-4.685c-1.756-1.803-2.953-3.878-3.562-6.17
		h-0.706c-0.097,0.389-0.22,0.728-0.317,1.047c-0.756,2.147-1.928,3.977-3.49,5.538c-1.658,1.635-3.755,2.977-6.293,4.098
		l-0.587-1.049c2.392-1.073,4.366-2.343,5.929-3.904c1.464-1.461,2.561-3.243,3.293-5.292c0.049-0.146,0.073-0.291,0.122-0.438
		h-8.757v-1.148h9.049c0.269-1.366,0.464-3.046,0.609-5.048h-7.854v-1.146H210.588z"/>
	<path fill="#727376" d="M239.684,24.992v0.953h-2.266v7.536c0,0.706,0.122,1.098,0.392,1.193c0.12,0.196,2.78,0.316,7.976,0.316
		c2.073,0,3.365-0.143,3.879-0.389c0.268-0.243,0.512-1.366,0.706-3.416l1.051,0.562c-0.318,2.271-0.635,3.465-0.929,3.61
		c-0.097,0.393-1.683,0.588-4.706,0.588c-4.881,0-7.538-0.074-8.027-0.195c-0.513-0.1-0.878-0.244-1.07-0.44
		c-0.222-0.221-0.318-0.683-0.318-1.366v-8.001h-2.195c-0.098,3.66-0.439,6.122-1.024,7.367c-0.635,1.462-1.659,2.634-3.074,3.487
		l-0.682-0.854c1.292-0.805,2.219-1.878,2.805-3.245c0.536-1.121,0.854-3.389,0.928-6.756h-2.854v-0.951H239.684L239.684,24.992z
		 M241.54,17.187h9.026v3.805h-1.05V18.14H231.49v2.951h-1.05v-3.903h9.928c-0.389-0.83-0.9-1.635-1.535-2.39l0.851-0.659
		C240.539,15.064,241.149,16.065,241.54,17.187z M239.028,20.992v0.952h-6.854v-0.952H239.028z M244.369,18.993v2.853h5.513v0.951
		h-5.513v2.196h4.367c-0.562,1.757-1.588,3.439-3.098,5c1.048,0.904,2.024,1.807,2.925,2.707l-0.781,0.782
		c-0.926-0.975-1.877-1.903-2.879-2.782c-1.535,1.342-3.316,2.463-5.316,3.344l-0.463-0.951c1.879-0.782,3.538-1.806,5-3.05
		c-1.071-0.876-2.17-1.683-3.292-2.463l0.683-0.682c1.172,0.805,2.294,1.634,3.343,2.461c1.194-1.193,2.023-2.341,2.488-3.413
		h-6.784v-0.951h2.76v-6L244.369,18.993L244.369,18.993z"/>
	<path fill="#727376" d="M279.333,15.748v0.951h-9.806v3.44h7.048c-1.049-0.683-2.099-1.317-3.146-1.904l0.585-0.782
		c2.292,1.172,4.366,2.538,6.27,4.1l-0.659,0.876c-0.585-0.463-1.146-0.902-1.708-1.34v13.341c0,1.27-0.584,1.903-1.729,1.903
		c-0.832,0-1.781-0.097-2.854-0.291l-0.098-1.146c1.146,0.244,2.121,0.391,2.954,0.391c0.436,0,0.68-0.367,0.68-1.049V21.091h-7.341
		v14.951h-1.049V21.091h-6.955v15.633h-1.048V21.042c-0.683,0.365-1.366,0.708-2.099,1l-0.562-0.854
		c2.634-1.123,4.709-2.391,6.172-3.806l0.977,0.561c-0.879,0.805-1.829,1.537-2.902,2.197h6.415v-3.44h-9.708v-0.951H279.333z
		 M267.72,28.336c-0.561,0.782-1.168,1.512-1.851,2.193c0.729,0.61,1.436,1.244,2.145,1.903l-0.683,0.659
		c-0.658-0.659-1.366-1.318-2.098-1.952c-0.828,0.78-1.706,1.489-2.657,2.147l-0.66-0.586c0.976-0.658,1.88-1.366,2.683-2.098
		c-0.754-0.587-1.562-1.197-2.415-1.807l0.684-0.56c0.781,0.56,1.586,1.147,2.366,1.757c0.682-0.662,1.27-1.34,1.805-2.052
		L267.72,28.336z M267.72,22.236c-0.561,0.78-1.168,1.491-1.828,2.147c0.73,0.634,1.465,1.269,2.196,1.953l-0.659,0.658
		c-0.66-0.682-1.368-1.342-2.148-2.025c-0.803,0.782-1.683,1.487-2.611,2.121l-0.682-0.562c0.979-0.657,1.879-1.339,2.658-2.071
		c-0.779-0.61-1.583-1.222-2.464-1.855l0.684-0.561c0.806,0.585,1.612,1.194,2.415,1.831c0.659-0.661,1.244-1.344,1.756-2.027
		L267.72,22.236z M276.015,28.336c-0.587,0.782-1.221,1.534-1.926,2.244c0.731,0.634,1.414,1.291,2.1,1.95l-0.662,0.66
		c-0.633-0.682-1.34-1.343-2.072-2.025c-0.854,0.804-1.78,1.536-2.781,2.219l-0.656-0.587c1.022-0.682,1.95-1.388,2.828-2.17
		c-0.781-0.633-1.584-1.295-2.465-1.927l0.685-0.562c0.828,0.586,1.635,1.22,2.416,1.903c0.68-0.684,1.291-1.365,1.854-2.1
		L276.015,28.336z M276.015,22.236c-0.587,0.757-1.193,1.463-1.855,2.123c0.71,0.633,1.416,1.293,2.125,1.975l-0.66,0.658
		c-0.656-0.682-1.366-1.366-2.098-2.049c-0.854,0.781-1.779,1.489-2.757,2.146l-0.682-0.562c1.024-0.657,1.975-1.365,2.804-2.121
		c-0.755-0.634-1.56-1.243-2.413-1.879l0.656-0.583c0.808,0.583,1.611,1.22,2.417,1.877c0.658-0.636,1.242-1.294,1.781-1.977
		L276.015,22.236z"/>
</g>
</svg>
