<?xml version="1.0" encoding="UTF-8" standalone="no"?>
<svg width="120px" height="96px" viewBox="0 0 120 96" version="1.1" xmlns="http://www.w3.org/2000/svg" xmlns:xlink="http://www.w3.org/1999/xlink" xmlns:sketch="http://www.bohemiancoding.com/sketch/ns">
    <title>incident-response</title>
    <description>Created with Sketch (http://www.bohemiancoding.com/sketch)</description>
    <defs></defs>
    <g id="Page-1" stroke="none" stroke-width="1" fill="none" fill-rule="evenodd" sketch:type="MSPage">
        <g id="Imported-Layers" sketch:type="MSLayerGroup" transform="translate(1.000000, 19.000000)" fill="#FFFFFF">
            <path d="M116.706482,15.88 L106.008277,15.88 C105.782527,15.88 105.561468,15.9452941 105.371486,16.0682353 L92.0498909,24.7058824 L81.3010773,24.7058824 C80.9222864,24.7058824 80.5663636,24.8894118 80.3464773,25.1988235 L65.3772,46.2288235 L14.6579182,46.2747059 C14.0105727,46.2752941 13.4857773,46.8023529 13.4863636,47.4523529 C13.48695,48.1011765 14.0117455,48.6276471 14.6590909,48.6276471 L41.1029182,48.6035294 L41.1029182,55.6864706 L27.9032864,55.6864706 L21.1542409,51.3611765 C20.6083364,51.0123529 19.8835909,51.1717647 19.5341182,51.72 C19.1858182,52.2670588 19.3458955,52.9947059 19.8912136,53.3447059 L26.9293364,57.8547059 C27.1181455,57.9752941 27.3368591,58.0394118 27.5602636,58.0394118 L74.8592864,58.0394118 C75.5066318,58.0394118 76.0320136,57.5123529 76.0320136,56.8629412 C76.0320136,56.2129412 75.5066318,55.6864706 74.8592864,55.6864706 L60.4681636,55.6864706 L60.4681636,48.5858824 L65.9823273,48.5811765 C66.3605318,48.5805882 66.7152818,48.3970588 66.9351682,48.0882353 L81.9044455,27.0588235 L92.3958455,27.0588235 C92.6215955,27.0588235 92.8426545,26.9935294 93.03205,26.8705882 L106.354232,18.2329412 L113.858514,18.2329412 L107.010373,25.0470588 C106.788727,25.2670588 106.664418,25.5670588 106.663832,25.88 C106.662659,26.1923529 106.786382,26.4929412 107.006855,26.7141176 L112.442445,32.1670588 L105.423086,32.1670588 L100.226145,27.3694118 C99.7488455,26.93 99.0070955,26.96 98.5690818,27.4382353 C98.1304818,27.9170588 98.1615591,28.6611765 98.6376864,29.1011765 L104.171786,34.2094118 C104.388155,34.4094118 104.671955,34.5205882 104.965723,34.5205882 L115.273995,34.5205882 C115.748364,34.5205882 116.175823,34.2335294 116.357595,33.7941176 C116.538782,33.3541176 116.438514,32.8488235 116.103114,32.5117647 L109.498314,25.8858824 L117.532082,17.8917647 C117.869827,17.5564706 117.971855,17.0488235 117.790668,16.6082353 C117.610068,16.1676471 117.182023,15.88 116.706482,15.88 Z M58.1227091,55.6864706 L43.4483727,55.6864706 L43.4483727,48.6011765 L58.1227091,48.5882353 L58.1227091,55.6864706 L58.1227091,55.6864706 Z" id="Fill-4" sketch:type="MSShapeGroup"></path>
            <path d="M91.5483682,2.36470588 L56.7459273,2.36470588 L56.7459273,1.20764706 C56.7459273,0.557647059 56.2205455,0.0311764706 55.5732,0.0311764706 C54.9252682,0.0311764706 54.4004727,0.557647059 54.4004727,1.20764706 L54.4004727,2.36470588 L19.5968591,2.36470588 C18.9489273,2.36470588 18.4241318,2.89176471 18.4241318,3.54176471 C18.4241318,4.19117647 18.9489273,4.71764706 19.5968591,4.71764706 L54.4004727,4.71764706 L54.4004727,10.6941176 L40.0339773,10.6941176 C39.7232045,10.6941176 39.4247455,10.8182353 39.2048591,11.0388235 L30.6844091,19.5858824 L22.2530864,19.5858824 C21.9792545,19.5858824 21.7136318,19.6823529 21.5031273,19.8582353 L0.611577273,37.3023529 C0.321913636,37.5435294 0.165940909,37.91 0.191740909,38.2870588 C0.217540909,38.6635294 0.421595455,39.0052941 0.741163636,39.2047059 L7.87134545,43.6647059 C8.06425909,43.7858824 8.27886818,43.8429412 8.49054545,43.8429412 C8.88223636,43.8429412 9.26454545,43.6464706 9.48736364,43.2894118 C9.8298,42.7376471 9.6621,42.0123529 9.11209091,41.6682353 L3.35927727,38.0694118 L22.6776136,21.9388235 L31.1705045,21.9388235 C31.4812773,21.9388235 31.7797364,21.8147059 31.9996227,21.5941176 L40.5200727,13.0470588 L67.4083636,13.0470588 L69.5743909,21.0605882 C69.7133591,21.5729412 70.1771727,21.9288235 70.7066591,21.9288235 L89.3160818,21.9288235 C89.9640136,21.9288235 90.4888091,21.4023529 90.4888091,20.7523529 C90.4888091,20.1029412 89.9640136,19.5758824 89.3160818,19.5758824 L71.6032091,19.5758824 L69.4371818,11.5623529 C69.2988,11.05 68.8349864,10.6941176 68.3055,10.6941176 L56.7459273,10.6941176 L56.7459273,4.71764706 L91.5483682,4.71764706 C92.1957136,4.71764706 92.7210955,4.19117647 92.7210955,3.54176471 C92.7210955,2.89176471 92.1957136,2.36470588 91.5483682,2.36470588" id="Fill-6" sketch:type="MSShapeGroup"></path>
            <path d="M55.8171273,43.0082353 L47.4890045,43.0082353 C46.8416591,43.0082353 46.3162773,42.4817647 46.3162773,41.8317647 L46.3162773,34.9094118 L39.41595,34.9094118 C38.7686045,34.9094118 38.2432227,34.3823529 38.2432227,33.7329412 L38.2432227,25.3776471 C38.2432227,24.7276471 38.7686045,24.2011765 39.41595,24.2011765 L46.3162773,24.2011765 L46.3162773,17.2794118 C46.3162773,16.6294118 46.8416591,16.1029412 47.4890045,16.1029412 L55.8171273,16.1029412 C56.4650591,16.1029412 56.9898545,16.6294118 56.9898545,17.2794118 L56.9898545,24.2011765 L63.8901818,24.2011765 C64.5381136,24.2011765 65.0629091,24.7276471 65.0629091,25.3776471 L65.0629091,33.7329412 C65.0629091,34.3823529 64.5381136,34.9094118 63.8901818,34.9094118 L56.9898545,34.9094118 L56.9898545,41.8317647 C56.9898545,42.4817647 56.4650591,43.0082353 55.8171273,43.0082353 Z M48.6617318,40.6552941 L54.6444,40.6552941 L54.6444,33.7329412 C54.6444,33.0829412 55.1697818,32.5564706 55.8171273,32.5564706 L62.7174545,32.5564706 L62.7174545,26.5541176 L55.8171273,26.5541176 C55.1697818,26.5541176 54.6444,26.0270588 54.6444,25.3776471 L54.6444,18.4558824 L48.6617318,18.4558824 L48.6617318,25.3776471 C48.6617318,26.0270588 48.1369364,26.5541176 47.4890045,26.5541176 L40.5886773,26.5541176 L40.5886773,32.5564706 L47.4890045,32.5564706 C48.1369364,32.5564706 48.6617318,33.0829412 48.6617318,33.7329412 L48.6617318,40.6552941 Z" id="Fill-8" sketch:type="MSShapeGroup"></path>
        </g>
    </g>
</svg>