<?xml version="1.0" encoding="UTF-8" standalone="no"?>
<svg width="120px" height="96px" viewBox="0 0 120 96" version="1.1" xmlns="http://www.w3.org/2000/svg" xmlns:xlink="http://www.w3.org/1999/xlink" xmlns:sketch="http://www.bohemiancoding.com/sketch/ns">
    <title>security-training</title>
    <description>Created with Sketch (http://www.bohemiancoding.com/sketch)</description>
    <defs></defs>
    <g id="Page-1" stroke="none" stroke-width="1" fill="none" fill-rule="evenodd" sketch:type="MSPage">
        <g id="Imported-Layers" sketch:type="MSLayerGroup" transform="translate(24.000000, 9.000000)" fill="#FFFFFF">
            <path d="M29.8028417,77.9423529 C29.1555583,77.9423529 28.6283833,77.4247059 28.6195083,76.7811765 L28.5360833,70.4464706 C27.269325,70.5635294 25.2197917,70.7123529 22.9590333,70.7123529 C16.58205,70.7123529 12.785325,69.5864706 11.3517167,67.2705882 C9.16255,63.7347059 8.03365,54.4905882 7.6964,51.2558824 C7.49523333,51.26 7.27395,51.2623529 7.03846667,51.2623529 C2.80095,51.2623529 0.64965,50.4588235 0.267433333,48.7329412 C-0.207083333,46.5917647 3.722175,37.1041176 5.54865,32.8670588 C5.45575833,23.3323529 8.57206667,15.0964706 14.5703833,9.03882353 C20.4882333,3.06294118 28.7561833,-0.228235294 37.8512833,-0.228235294 C56.019,-0.228235294 70.25095,13.3429412 70.25095,30.6676471 C70.25095,38.4876471 67.41095,45.9941176 62.2427417,51.8676471 L61.8208833,76.7705882 C61.8102333,77.4123529 61.2842417,77.9270588 60.6381417,77.9276471 L29.8034333,77.9423529 C29.8034333,77.9423529 29.8034333,77.9423529 29.8028417,77.9423529 Z M29.7022583,67.9629412 C29.9856667,67.9629412 30.261975,68.0647059 30.478525,68.2511765 C30.7329417,68.4711765 30.8808583,68.7888235 30.8855917,69.1241176 L30.9707917,75.5888235 L59.4743333,75.5752941 L59.8784417,51.7117647 C59.8033,51.3470588 59.883175,50.96 60.1346333,50.6835294 C65.1324417,45.1870588 67.8842833,38.0788235 67.8842833,30.6676471 C67.8842833,22.7858824 64.7691583,15.53 59.1134167,10.2364706 C53.5239417,5.00588235 45.9730917,2.12470588 37.8512833,2.12470588 C29.395775,2.12470588 21.7265917,5.16647059 16.257225,10.69 C10.66065,16.3417647 7.77686667,24.0852941 7.918275,33.0835294 C7.92123333,33.2494118 7.8881,33.4141176 7.822425,33.5664706 C5.22500833,39.5729412 2.51221667,46.8005882 2.57848333,48.1941176 C2.80331667,48.4170588 3.9476,48.9094118 7.03846667,48.9094118 C7.97803333,48.9094118 8.67501667,48.8605882 8.681525,48.86 C9.32289167,48.8247059 9.88911667,49.2917647 9.945325,49.9329412 C10.2429333,53.3552941 11.4386917,62.9217647 13.367525,66.0382353 C14.2810583,67.5129412 17.776625,68.3594118 22.9590333,68.3594118 C26.459925,68.3594118 29.5223917,67.9764706 29.5525667,67.9729412 C29.6022667,67.9658824 29.6525583,67.9629412 29.7022583,67.9629412 Z" id="Fill-1" sketch:type="MSShapeGroup"></path>
            <path d="M44.4057667,17.9423529 C44.1838917,17.7217647 43.8827333,17.5976471 43.56915,17.5976471 L34.85035,17.5976471 C34.3770167,16.4117647 33.2143917,15.5705882 31.8553333,15.5705882 C30.0785583,15.5705882 28.632525,17.0076471 28.632525,18.7747059 C28.632525,20.5411765 30.0785583,21.9782353 31.8553333,21.9782353 C33.2149833,21.9782353 34.3776083,21.1364706 34.85035,19.9505882 L43.0786583,19.9505882 L47.664075,24.5094118 C47.88595,24.73 48.1871083,24.8541176 48.5006917,24.8541176 L55.229125,24.8170588 C55.704825,25.9970588 56.8650833,26.8335294 58.2194083,26.8335294 C59.996775,26.8335294 61.4428083,25.3964706 61.4428083,23.63 C61.4428083,21.8629412 59.996775,20.4258824 58.2194083,20.4258824 C56.85325,20.4258824 55.6853,21.2770588 55.2172917,22.4729412 L48.9888167,22.4988235 L44.4057667,17.9423529 Z M30.9991917,18.7747059 C30.9991917,18.3052941 31.383775,17.9235294 31.8553333,17.9235294 C32.3274833,17.9235294 32.7120667,18.3052941 32.7120667,18.7747059 C32.7120667,19.2441176 32.3274833,19.6252941 31.8553333,19.6252941 C31.383775,19.6252941 30.9991917,19.2441176 30.9991917,18.7747059 Z M59.0761417,23.63 C59.0761417,24.0994118 58.6915583,24.4805882 58.2194083,24.4805882 C57.74785,24.4805882 57.3632667,24.0994118 57.3632667,23.63 C57.3632667,23.1605882 57.74785,22.7788235 58.2194083,22.7788235 C58.6915583,22.7788235 59.0761417,23.1605882 59.0761417,23.63 Z" id="Fill-9" sketch:type="MSShapeGroup"></path>
            <path d="M61.8895167,30.3035294 L46.407375,30.3035294 L44.2874333,28.4829412 C44.4625667,28.0882353 44.5619667,27.6529412 44.5619667,27.1941176 C44.5619667,25.4276471 43.1159333,23.99 41.3391583,23.99 C39.81325,23.99 38.5340667,25.0505882 38.2021417,26.4688235 L29.505825,26.4688235 L21.607075,18.6158824 L29.679775,10.59 L45.0950583,10.59 L49.6745583,15.2929412 C49.4822667,15.7029412 49.371625,16.1582353 49.371625,16.64 C49.371625,18.4064706 50.8176583,19.8435294 52.595025,19.8435294 C54.3723917,19.8435294 55.8178333,18.4064706 55.8178333,16.64 C55.8178333,14.8729412 54.3723917,13.4358824 52.595025,13.4358824 C52.1678417,13.4358824 51.7613667,13.5205882 51.388025,13.6705882 L46.4470167,8.59529412 C46.2239583,8.36647059 45.9168833,8.23705882 45.5967917,8.23705882 L29.189875,8.23705882 C28.8757,8.23705882 28.5745417,8.36117647 28.3526667,8.58176471 L19.0966333,17.7841176 C18.8747583,18.0047059 18.7499167,18.3041176 18.7499167,18.6158824 C18.7499167,18.9282353 18.8747583,19.2270588 19.0966333,19.4476471 L28.1787167,28.4770588 C28.4005917,28.6976471 28.70175,28.8217647 29.015925,28.8217647 L38.5672,28.8217647 C39.1292833,29.7635294 40.1599667,30.3982353 41.3391583,30.3982353 C41.7858667,30.3982353 42.2118667,30.3064706 42.5994083,30.1423529 L45.1938667,32.37 C45.4086417,32.5547059 45.683175,32.6564706 45.967175,32.6564706 L59.03295,32.6564706 L54.039875,37.6205882 L42.7141917,37.6205882 L37.7501083,32.59 C37.5276417,32.3641176 37.223525,32.2376471 36.9052083,32.2376471 L24.5352333,32.2847059 L18.5446083,26.2405882 C18.7327583,25.8341176 18.8404417,25.3841176 18.8404417,24.9082353 C18.8404417,23.1411765 17.3944083,21.7035294 15.6176333,21.7035294 C13.8408583,21.7035294 12.394825,23.1411765 12.394825,24.9082353 C12.394825,26.6752941 13.8408583,28.1123529 15.6176333,28.1123529 C16.04955,28.1123529 16.4619417,28.0258824 16.8388333,27.8717647 L23.19925,34.2888235 C23.4217167,34.5129412 23.7252417,34.6394118 24.0417833,34.6394118 L36.410575,34.5923529 L41.3728833,39.6205882 C41.59535,39.8464706 41.8994667,39.9735294 42.2177833,39.9735294 L46.8150333,39.9735294 L46.8150333,50.4994118 C45.6027083,50.96 44.7376917,52.1252941 44.7376917,53.4905882 C44.7376917,55.2570588 46.183725,56.6947059 47.9605,56.6947059 C49.7378667,56.6947059 51.1833083,55.2570588 51.1833083,53.4905882 C51.1833083,52.1535294 50.354975,51.0064706 49.1817,50.5270588 L49.1817,39.9735294 L54.529775,39.9735294 C54.8433583,39.9735294 55.1445167,39.8494118 55.3663917,39.6288235 L62.7261333,32.3117647 C63.0645667,31.9747059 63.1657417,31.4694118 62.9829167,31.0294118 C62.7995,30.59 62.368175,30.3035294 61.8895167,30.3035294 Z M53.4511667,16.64 C53.4511667,17.1094118 53.067175,17.4905882 52.595025,17.4905882 C52.122875,17.4905882 51.7382917,17.1094118 51.7382917,16.64 C51.7382917,16.1705882 52.122875,15.7888235 52.595025,15.7888235 C53.067175,15.7888235 53.4511667,16.1705882 53.4511667,16.64 Z M40.482425,27.1941176 C40.482425,26.7252941 40.8664167,26.3429412 41.3391583,26.3429412 C41.8107167,26.3429412 42.1953,26.7252941 42.1953,27.1941176 C42.1953,27.6635294 41.8107167,28.0452941 41.3391583,28.0452941 C40.8664167,28.0452941 40.482425,27.6635294 40.482425,27.1941176 Z M14.7614917,24.9082353 C14.7614917,24.4388235 15.1454833,24.0564706 15.6176333,24.0564706 C16.0897833,24.0564706 16.473775,24.4388235 16.473775,24.9082353 C16.473775,25.3776471 16.0897833,25.7594118 15.6176333,25.7594118 C15.1454833,25.7594118 14.7614917,25.3776471 14.7614917,24.9082353 Z M47.1043583,53.4905882 C47.1043583,53.0217647 47.48835,52.6394118 47.9605,52.6394118 C48.43265,52.6394118 48.8166417,53.0217647 48.8166417,53.4905882 C48.8166417,53.96 48.43265,54.3417647 47.9605,54.3417647 C47.48835,54.3417647 47.1043583,53.96 47.1043583,53.4905882 Z" id="Fill-10" sketch:type="MSShapeGroup"></path>
        </g>
    </g>
</svg>