<?xml version="1.0" encoding="UTF-8" standalone="no"?>
<svg width="120px" height="96px" viewBox="0 0 120 96" version="1.1" xmlns="http://www.w3.org/2000/svg" xmlns:xlink="http://www.w3.org/1999/xlink" xmlns:sketch="http://www.bohemiancoding.com/sketch/ns">
    <title>security-consulting</title>
    <description>Created with Sketch (http://www.bohemiancoding.com/sketch)</description>
    <defs></defs>
    <g id="Page-1" stroke="none" stroke-width="1" fill="none" fill-rule="evenodd" sketch:type="MSPage">
        <g id="test" sketch:type="MSLayerGroup" transform="translate(16.000000, 4.000000)">
            <g id="Group" sketch:type="MSShapeGroup">
                <g transform="translate(5.315436, 35.882353)" id="Shape">
                    <g transform="translate(21.261745, 9.411765)">
                        <path d="M11.0956779,20.2211765 L6.19543624,21.4417647 C4.52402685,21.8841176 3.74442953,22.4405882 3.63280537,24.1035294 L2.26555705,38.2641176 L5.31957047,39.7852941 L6.19543624,28.6523529 C6.19543624,28.0982353 6.75178523,27.5435294 7.30872483,27.5435294 C7.97787919,27.5435294 8.53422819,27.9858824 8.53422819,28.5423529 L7.78711409,39.7852941 L15.8500403,36.1352941 C11.2002148,28.1941176 9.64869799,25.2064706 9.64869799,22.7735294 C9.64810738,21.7741176 10.2044564,20.8858824 11.0956779,20.2211765 L11.0956779,20.2211765 Z"></path>
                        <path d="M27.2463356,21.4417647 L22.4565369,20.2211765 C23.1245101,20.8858824 23.6820403,21.7741176 23.6820403,22.7723529 C23.6820403,25.9241176 20.6297987,30.9011765 18.2148188,36.1341176 L25.5879195,40.1011765 L24.9063624,28.7617647 C24.9063624,27.9852941 25.3522685,27.5429412 26.0202416,27.5429412 C26.7998389,27.5429412 27.245745,27.9852941 27.245745,28.6517647 L28.0968054,40.1017647 L30.9736376,38.0105882 L29.6955705,24.1035294 C29.5851275,22.4405882 28.8055302,21.8841176 27.2463356,21.4417647 L27.2463356,21.4417647 Z"></path>
                        <path d="M16.6650738,15.2288235 C19.5602148,15.2288235 22.0118121,11.7905882 21.1205906,6.24352941 C19.1154899,7.46235294 13.992,8.01882353 11.8752752,8.01882353 C11.5415839,12.3447059 13.546094,15.2288235 16.6650738,15.2288235 L16.6650738,15.2288235 Z"></path>
                        <path d="M7.30813423,27.5435294 C6.75178523,27.5435294 6.19484564,28.0976471 6.19484564,28.6523529 L5.31897987,39.7852941 L7.78652349,39.7852941 L8.53363758,28.5423529 C8.53363758,27.9858824 7.97728859,27.5435294 7.30813423,27.5435294 L7.30813423,27.5435294 Z" fill="#FFFFFF"></path>
                        <path d="M3.63280537,24.1035294 C3.74442953,22.4405882 4.52402685,21.8841176 6.19543624,21.4417647 L11.0956779,20.2211765 C10.2044564,20.8858824 9.64810738,21.7741176 9.64810738,22.7723529 C9.64810738,25.2052941 11.1996242,28.1929412 15.8494497,36.1341176 L18.2154094,36.1341176 C20.6303893,30.9011765 23.6826309,25.9235294 23.6826309,22.7723529 C23.6826309,21.7735294 23.1251007,20.8852941 22.4571275,20.2211765 L27.2469262,21.4417647 C28.8061208,21.8841176 29.5857181,22.4405882 29.6973423,24.1035294 L30.9754094,38.0105882 L33.442953,38.0105882 L32.0361342,23.4388235 C31.8140671,20.9976471 30.5885638,19.9988235 28.361396,19.4447059 L20.3415839,17.5576471 L19.5608054,19.9988235 C20.563651,20.5529412 21.2322148,21.7735294 21.2322148,22.7723529 C21.2322148,24.2152941 20.3409933,25.8782353 19.7834631,26.8764706 L13.546094,26.8764706 C12.989745,25.8776471 12.2101477,24.2147059 12.2101477,22.7723529 C12.2101477,21.7735294 12.8781208,20.5529412 13.8809664,19.9988235 L12.989745,17.5576471 L4.96993289,19.4447059 C2.63114094,19.9988235 1.62888591,21.1076471 1.40563758,23.4388235 L-0.137610738,38.2641176 L2.26555705,38.2641176 L3.63280537,24.1035294 L3.63280537,24.1035294 Z" fill="#FFFFFF"></path>
                        <path d="M26.0208322,27.5435294 C25.3528591,27.5435294 24.906953,27.9858824 24.906953,28.7623529 L25.5885101,40.1017647 L28.097396,40.1017647 L27.2463356,28.6517647 C27.2463356,27.9858824 26.8004295,27.5435294 26.0208322,27.5435294 L26.0208322,27.5435294 Z" fill="#FFFFFF"></path>
                        <path d="M10.9840537,13.4535294 C12.0979329,15.8947059 14.4367248,17.4476471 16.6650738,17.4476471 C18.6701745,17.4476471 21.4542819,15.8947059 22.3449128,13.4535294 L24.2383893,13.7858824 C24.9063624,5.13294118 22.0112215,0.252352941 16.6644832,0.252352941 C11.0950872,0.252352941 8.08714094,5.13294118 8.97836242,13.7858824 L10.9840537,13.4535294 L10.9840537,13.4535294 Z M11.8752752,8.01823529 C13.992,8.01823529 19.1154899,7.46235294 21.1205906,6.24294118 C22.0118121,11.79 19.5608054,15.2282353 16.6650738,15.2282353 C13.546094,15.2288235 11.5415839,12.3447059 11.8752752,8.01823529 L11.8752752,8.01823529 Z" fill="#FFFFFF"></path>
                    </g>
                    <g transform="translate(47.248322, 1.176471)" fill="#FFFFFF">
                        <path d="M12.3707919,17.1764706 C16.8268993,17.1764706 19.6098255,12.1835294 19.6098255,7.52294118 C19.6098255,3.41882353 16.8268993,0.0905882353 12.3707919,0.0905882353 C8.13734228,0.0905882353 5.24220134,3.41823529 5.24220134,7.52294118 C5.24220134,12.1841176 8.13793289,17.1764706 12.3707919,17.1764706 L12.3707919,17.1764706 Z M15.490953,5.08411765 C15.7118389,5.86058824 16.8268993,7.19117647 17.4960537,7.52352941 C17.3838389,12.5164706 15.045047,14.9576471 12.3707919,14.9576471 C9.92155705,14.9576471 7.35774497,12.4064706 7.47055034,6.85882353 C8.58383893,6.85882353 14.1532349,5.74823529 15.490953,5.08411765 L15.490953,5.08411765 Z"></path>
                        <path d="M13.2366174,43.1205882 C13.4397852,43 13.6435436,42.88 13.8478926,42.7611765 C14.2672215,36.7541176 15.7348725,31.1 19.6104161,20.5047059 L27.1849128,22.5 C28.9874362,23.0294118 29.3760537,23.5594118 29.4097181,25.4241176 C29.8355436,24.4105882 30.2277047,23.3829412 30.6399463,22.3911765 C30.6411275,22.3864706 30.6423087,22.3823529 30.6428993,22.3776471 C30.6434899,22.3782353 30.6440805,22.3782353 30.6452617,22.3788235 C30.7208591,22.1964706 30.7964564,22.0141176 30.8738255,21.8341176 C30.3546846,21.2970588 29.5768591,20.8917647 28.4104161,20.5047059 L18.1634362,17.7311765 C17.1605906,20.0605882 15.7124295,23.7205882 14.9328322,26.8282353 C14.4869262,26.05 14.0427919,24.8311765 13.1527517,24.4970588 C14.0427919,23.8323529 14.5997315,21.9458824 14.5997315,21.0588235 C14.5997315,20.2823529 13.7079195,19.6158824 12.3713826,19.2835294 C11.0354362,19.6158824 10.1430336,20.2823529 10.1430336,21.0588235 C10.1430336,21.9452941 10.7011544,23.8323529 11.5917852,24.4970588 C10.701745,24.8311765 10.2558389,26.05 9.80934228,26.8282353 C9.02974497,23.7205882 7.5827651,20.0605882 6.57873826,17.7311765 L-0.0679194631,19.5347059 C-0.0838657718,20.1682353 -0.132885906,21.7723529 -0.147651007,21.9270588 L5.13175839,20.5047059 C9.29551678,31.8829412 10.679302,37.5635294 10.9704698,44.1011765 C11.7081342,43.7270588 12.4635168,43.4005882 13.2366174,43.1205882 L13.2366174,43.1205882 Z"></path>
                        <path d="M26.9858792,29.8129412 C27.0467114,29.7364706 27.0992752,29.6535294 27.1583356,29.5752941 L27.1855034,28.0470588 C27.1855034,26.9382353 26.7395973,26.3841176 25.849557,26.3841176 C25.0699597,26.3841176 24.6258255,26.9382353 24.6258255,28.0470588 L24.5649933,32.3688235 C25.4024698,31.5564706 26.246443,30.7464706 26.9858792,29.8129412 L26.9858792,29.8129412 Z"></path>
                    </g>
                    <g fill="#FFFFFF">
                        <path d="M24.2129933,27.4494118 L24.2129933,22.9888235 C24.2129933,21.9023529 23.7097987,21.4017647 22.7872752,21.4017647 C21.9480268,21.4017647 21.4454228,21.9029412 21.4454228,22.9888235 L21.4430604,29.52 C21.8623893,28.6676471 22.6839195,27.92 24.2129933,27.4494118 L24.2129933,27.4494118 Z"></path>
                        <path d="M14.4833826,13.7158824 C18.0063356,13.7158824 20.2707114,9.79 20.2707114,6.19764706 C20.2707114,2.93941176 18.0063356,0.266470588 14.4833826,0.266470588 C11.1287517,0.266470588 8.86378523,2.93941176 8.86378523,6.19764706 C8.86437584,9.78941176 11.1287517,13.7158824 14.4833826,13.7158824 L14.4833826,13.7158824 Z M16.5806174,4.86058824 C16.8322148,5.44529412 17.4198658,6.03058824 17.838604,6.36470588 C17.7547383,9.70588235 16.1612886,11.2935294 14.4839732,11.2935294 C12.9743893,11.2935294 11.2964832,9.70647059 11.2964832,6.11411765 C12.3028725,6.03058824 15.2381745,5.36235294 16.5806174,4.86058824 L16.5806174,4.86058824 Z"></path>
                        <path d="M7.63001342,38.3264706 L7.68966443,22.9888235 C7.68966443,21.9023529 7.1864698,21.4017647 6.34781208,21.4017647 C5.42528859,21.4017647 4.92209396,21.9029412 4.92209396,22.9888235 L4.92209396,34.8917647 C5.81626846,36.0429412 6.72107383,37.1864706 7.63001342,38.3264706 L7.63001342,38.3264706 Z"></path>
                        <path d="M29.329396,23.1558824 C29.329396,18.7282353 28.0714094,16.7235294 24.2129933,15.6376471 L18.5095302,14.0505882 C18.0902013,15.5541176 17.0838121,18.5617647 16.2445638,21.1511765 L15.5736376,24.1588235 L15.7413691,21.1511765 L15.5736376,18.8958824 C15.9929664,18.3941176 16.2445638,17.3917647 16.2445638,16.8070588 C16.2445638,16.2223529 15.5736376,15.8047059 14.5672483,15.4705882 C13.5608591,15.8041176 12.8893423,16.2223529 12.8893423,16.8070588 C12.8893423,17.3917647 13.1409396,18.3941176 13.5602685,18.8958824 L13.3925369,21.1511765 L13.5602685,24.1588235 L12.8893423,21.1511765 C12.0506846,18.5617647 11.0442953,15.5541176 10.6243758,14.0505882 L4.92091275,15.6376471 C1.06308725,16.7241176 -0.111624161,18.7282353 -0.195489933,23.1558824 L-0.248644295,28.0611765 C0.106308725,28.2911765 0.398657718,28.6394118 0.587651007,29.1105882 C1.19124832,29.9511765 1.80016107,30.7870588 2.41911409,31.6152941 L2.48880537,22.7376471 C2.48880537,19.8141176 3.32746309,18.5611765 5.59183893,17.9764706 L9.03033557,17.0576471 C10.7082416,22.2370588 13.2242148,25.4947059 13.2242148,29.5882353 L13.2242148,40.1141176 C13.2242148,41.2623529 13.0606174,42.1741176 12.7151141,42.8694118 C13.7474899,43.6076471 14.761557,44.35 15.717745,45.1229412 C15.8275973,45.2117647 15.9191409,45.3070588 16.0053691,45.4035294 C16.6467651,45.4129412 17.2881611,45.4147059 17.929557,45.4294118 C17.9331007,45.0505882 17.9348725,44.6776471 17.9407785,44.2941176 C16.5428188,43.7082353 15.9079195,42.3682353 15.9079195,40.1141176 L15.9079195,29.5882353 C15.9079195,25.4947059 18.4238926,22.2364706 20.1017987,17.0576471 L23.5408859,17.9764706 C25.8058523,18.5611765 26.6439195,19.6470588 26.6439195,22.7376471 L26.6740403,26.6011765 C27.5457718,26.3947059 28.4482148,26.2635294 29.360698,26.1852941 L29.329396,23.1558824 L29.329396,23.1558824 Z"></path>
                    </g>
                </g>
                <path d="M44.1004027,87.65 C19.7793289,87.65 -0.00767785235,67.9423529 -0.00767785235,43.7188235 C-0.00767785235,19.4947059 19.7793289,-0.212941176 44.1004027,-0.212941176 C68.4214765,-0.212941176 88.2084832,19.4947059 88.2084832,43.7188235 C88.2090738,67.9423529 68.4220671,87.65 44.1004027,87.65 L44.1004027,87.65 Z M44.1004027,2.14058824 C21.0816107,2.14058824 2.35473826,20.7929412 2.35473826,43.7194118 C2.35473826,66.6458824 21.0816107,85.2976471 44.1004027,85.2976471 C67.1191946,85.2976471 85.8460671,66.6458824 85.8460671,43.7194118 C85.8460671,20.7929412 67.1197852,2.14058824 44.1004027,2.14058824 L44.1004027,2.14058824 Z" id="Shape" fill="#FFFFFF"></path>
                <path d="M38.5670336,20.5617647 L35.6541745,20.5617647 L37.9173691,34.6652941 L39.9006174,30.9705882 L38.5670336,20.5617647 L38.5670336,20.5617647 Z M53.6551946,9.66705882 L38.2292081,36.61 L40.7859329,36.61 L56.7694497,9.66705882 L53.6551946,9.66705882 L53.6551946,9.66705882 Z" id="Shape" fill="#FFFFFF"></path>
            </g>
        </g>
    </g>
</svg>